<?xml version="1.0" encoding="utf-8"?>
<!-- Generator: Adobe Illustrator 25.0.1, SVG Export Plug-In . SVG Version: 6.00 Build 0)  -->
<svg version="1.1" id="Layer_2" xmlns="http://www.w3.org/2000/svg" xmlns:xlink="http://www.w3.org/1999/xlink" x="0px" y="0px"
	 viewBox="0 0 1920 1080" style="enable-background:new 0 0 1920 1080;" xml:space="preserve">
<style type="text/css">
	.st0{fill:#FFFFFF;}
	.st1{fill:#3FA9F5;}
</style>
<g id="Layer_1">
	<ellipse class="st0" cx="746" cy="340.5" rx="159" ry="151.5"/>
	<path id="Layer_1" class="st1" d="M746,189c-0.02,0-0.04,0-0.06,0c-0.01,0-0.01,0-0.02,0c-0.01,0-0.03,0-0.04,0c-0.01,0-0.01,0-0.02,0
		c-0.02,0-0.04,0-0.06,0c0,0,0,0-0.01,0c-0.02,0-0.03,0-0.05,0c-0.01,0-0.01,0-0.02,0c-0.01,0-0.03,0-0.04,0c0,0-0.01,0-0.02,0
		c-0.02,0-0.04,0-0.06,0c0,0-0.01,0-0.01,0c-0.02,0-0.03,0-0.05,0c-0.01,0-0.01,0-0.02,0c-0.02,0-0.03,0-0.05,0c0,0-0.01,0-0.01,0
		c-0.02,0-0.04,0-0.06,0c0,0-0.01,0-0.01,0c-0.01,0-0.04,0-0.05,0c0,0-0.01,0-0.02,0c-0.04,0-0.08,0-0.12,0c0,0-0.01,0-0.01,0
		c-0.02,0-0.03,0-0.05,0c0,0-0.01,0-0.01,0c-0.04,0-0.08,0-0.12,0c0,0-0.01,0-0.01,0c-0.02,0-0.03,0-0.05,0c0,0-0.01,0-0.01,0
		c-0.02,0-0.04,0-0.06,0c0,0,0,0,0,0c-0.02,0-0.04,0-0.06,0c0,0-0.01,0-0.01,0c-0.04,0-0.08,0-0.12,0c0,0,0,0-0.01,0
		c-0.02,0-0.03,0-0.05,0c0,0-0.01,0-0.01,0c-0.04,0-0.08,0-0.12,0c0,0,0,0,0,0c-0.02,0-0.04,0-0.06,0c0,0,0,0-0.01,0
		c-0.04,0-0.08,0-0.13,0c0,0,0,0,0,0c-0.06,0-0.13,0-0.19,0c0,0,0,0,0,0c-0.06,0-0.13,0-0.19,0c0,0,0,0,0,0
		c-3.34,0.04-6.65,0.18-9.93,0.41l0.21,2.99c3.89-0.28,7.86-0.42,11.78-0.42V189L746,189L746,189z M722.08,190.7
		c-0.93,0.13-1.86,0.28-2.79,0.43c-0.01,0,0,0,0,0c-0.01,0-0.03,0-0.04,0.01c-0.01,0,0,0-0.01,0c-0.04,0.01-0.08,0.01-0.12,0.02
		c-0.01,0-0.02,0-0.02,0c-0.01,0-0.02,0-0.03,0c-0.01,0-0.02,0-0.03,0c-0.01,0-0.02,0-0.03,0c-0.01,0-0.02,0-0.03,0.01
		c-0.01,0-0.03,0-0.04,0.01c-0.01,0-0.02,0-0.03,0.01c-0.01,0-0.02,0-0.02,0c-0.01,0-0.02,0-0.03,0.01c-0.01,0-0.02,0-0.02,0
		c-0.02,0-0.03,0.01-0.05,0.01c0,0-0.01,0-0.01,0c-0.02,0-0.03,0.01-0.05,0.01c0,0-0.01,0-0.01,0c-0.01,0-0.03,0.01-0.04,0.01
		c0,0-0.01,0-0.01,0c-0.04,0.01-0.08,0.01-0.12,0.02c0,0,0,0,0,0c-0.02,0-0.04,0.01-0.06,0.01c0,0,0,0,0,0
		c-2.02,0.34-4.03,0.71-6.02,1.12c0,0,0,0,0,0c-0.02,0-0.04,0.01-0.06,0.01c0,0,0,0,0,0c-0.02,0-0.04,0.01-0.06,0.01c0,0,0,0,0,0
		c-0.02,0-0.03,0.01-0.05,0.01c-0.01,0-0.01,0-0.02,0c-0.01,0-0.03,0.01-0.04,0.01c-0.01,0-0.01,0-0.02,0
		c-0.02,0-0.03,0.01-0.05,0.01c-0.01,0-0.02,0-0.03,0.01c-0.01,0-0.02,0-0.03,0.01c-0.01,0-0.02,0-0.03,0.01c-0.01,0-0.01,0-0.02,0
		c-0.01,0-0.02,0.01-0.04,0.01l0,0c-0.03,0.01-0.06,0.01-0.09,0.02l0,0c-0.01,0-0.03,0.01-0.04,0.01l0,0
		c-0.53,0.11-1.06,0.22-1.59,0.34l0.64,2.93c3.82-0.83,7.72-1.54,11.59-2.1L722.08,190.7L722.08,190.7z M698.65,195.83
		c-0.4,0.12-0.81,0.24-1.21,0.36c-0.01,0-0.01,0-0.02,0c-0.03,0.01-0.06,0.02-0.09,0.03c-0.01,0-0.01,0-0.02,0.01
		c-0.01,0-0.03,0.01-0.05,0.01c-0.01,0-0.02,0.01-0.03,0.01c-0.02,0.01-0.04,0.01-0.06,0.02c-0.01,0-0.03,0.01-0.04,0.01
		c-0.01,0-0.03,0.01-0.04,0.01c-0.02,0.01-0.03,0.01-0.05,0.02c-0.01,0-0.02,0.01-0.04,0.01c-0.02,0.01-0.04,0.01-0.06,0.02
		c-0.01,0-0.02,0.01-0.03,0.01c-0.03,0.01-0.05,0.02-0.08,0.02c0,0,0,0-0.01,0c-0.02,0.01-0.05,0.01-0.07,0.02c0,0-0.01,0-0.02,0.01
		c-0.03,0.01-0.05,0.02-0.08,0.03l-0.01,0c-0.03,0.01-0.05,0.02-0.08,0.03l-0.01,0c-0.03,0.01-0.06,0.02-0.09,0.03l0,0
		c-3.11,0.97-6.18,2.03-9.2,3.18l1.06,2.81c3.65-1.38,7.41-2.65,11.16-3.76L698.65,195.83L698.65,195.83z M676.23,204.33
		c-0.15,0.07-0.31,0.14-0.46,0.22c0,0-0.01,0-0.01,0.01c-0.03,0.01-0.06,0.03-0.09,0.04c0,0,0,0-0.01,0
		c-0.02,0.01-0.03,0.01-0.05,0.02c-0.01,0-0.01,0.01-0.02,0.01c-0.03,0.01-0.05,0.02-0.08,0.04c-0.01,0-0.02,0.01-0.02,0.01
		c-0.01,0.01-0.03,0.01-0.04,0.02c-0.01,0.01-0.03,0.01-0.04,0.02c-0.01,0.01-0.04,0.02-0.05,0.03c-0.01,0.01-0.03,0.01-0.04,0.02
		c-0.01,0.01-0.02,0.01-0.03,0.02c-0.02,0.01-0.04,0.02-0.06,0.03c-0.01,0.01-0.02,0.01-0.03,0.02c-0.02,0.01-0.03,0.01-0.05,0.02
		c-0.01,0-0.02,0.01-0.03,0.01c-0.02,0.01-0.04,0.02-0.07,0.03c-0.01,0-0.02,0.01-0.03,0.01c-0.02,0.01-0.04,0.02-0.07,0.03
		c0,0-0.01,0.01-0.02,0.01c-0.02,0.01-0.04,0.02-0.06,0.03c0,0-0.02,0.01-0.02,0.01c-0.02,0.01-0.05,0.02-0.07,0.03
		c0,0-0.01,0-0.01,0.01c-0.02,0.01-0.05,0.02-0.07,0.03l-0.01,0.01c-0.03,0.01-0.05,0.02-0.08,0.04c0,0-0.01,0-0.01,0.01
		c-0.05,0.03-0.11,0.05-0.16,0.08l-0.01,0c-0.06,0.03-0.11,0.05-0.17,0.08l0,0c-0.03,0.01-0.06,0.03-0.08,0.04l0,0
		c-2.93,1.42-5.81,2.92-8.64,4.5l1.47,2.62c3.41-1.91,6.93-3.71,10.48-5.37L676.23,204.33L676.23,204.33z M655.31,216.04
		c-0.01,0.01-0.02,0.01-0.02,0.02c-0.01,0.01-0.02,0.01-0.03,0.02c-0.02,0.01-0.04,0.03-0.06,0.04c-0.01,0.01-0.02,0.01-0.03,0.02
		c-0.01,0.01-0.02,0.02-0.04,0.02c-0.01,0.01-0.02,0.01-0.03,0.02c-0.02,0.01-0.04,0.02-0.05,0.04c-0.01,0.01-0.02,0.01-0.03,0.02
		c-0.01,0.01-0.02,0.02-0.04,0.02c-0.02,0.01-0.03,0.02-0.05,0.03c-0.01,0.01-0.02,0.02-0.04,0.02c-0.01,0.01-0.02,0.01-0.03,0.02
		c-0.02,0.01-0.03,0.02-0.05,0.04c-0.01,0.01-0.02,0.02-0.03,0.02c-0.01,0.01-0.03,0.02-0.03,0.02c-0.01,0.01-0.02,0.02-0.04,0.02
		c-0.02,0.01-0.04,0.02-0.05,0.03c-0.01,0.01-0.02,0.01-0.03,0.02c-0.01,0.01-0.02,0.02-0.03,0.02c-0.02,0.01-0.03,0.02-0.05,0.04
		c-0.01,0.01-0.02,0.01-0.03,0.02c-0.01,0.01-0.02,0.01-0.03,0.02c-0.02,0.01-0.03,0.02-0.05,0.03c-0.01,0.01-0.02,0.02-0.03,0.02
		c-0.01,0.01-0.02,0.02-0.04,0.02c-0.01,0.01-0.02,0.01-0.03,0.02c-0.02,0.01-0.04,0.02-0.05,0.04c-0.01,0.01-0.02,0.01-0.03,0.02
		c-0.01,0.01-0.02,0.02-0.03,0.02c-0.02,0.01-0.04,0.02-0.05,0.04c-0.01,0.01-0.02,0.01-0.03,0.02c-0.01,0.01-0.02,0.01-0.03,0.02
		c-0.02,0.01-0.03,0.02-0.05,0.03c-0.01,0.01-0.03,0.02-0.04,0.03c-0.01,0.01-0.02,0.02-0.03,0.02c-0.01,0.01-0.03,0.02-0.04,0.03
		c-0.01,0.01-0.03,0.02-0.04,0.03c-0.01,0.01-0.03,0.02-0.04,0.03c-0.01,0.01-0.02,0.01-0.03,0.02c-0.02,0.01-0.04,0.02-0.06,0.04
		c-0.01,0.01-0.02,0.01-0.03,0.02c-0.01,0.01-0.02,0.02-0.04,0.03c-0.01,0.01-0.02,0.01-0.03,0.02c-0.02,0.01-0.04,0.03-0.06,0.04
		c-0.01,0.01-0.02,0.02-0.03,0.02c-0.01,0.01-0.03,0.02-0.04,0.03c-0.02,0.01-0.03,0.02-0.04,0.03c-0.01,0.01-0.03,0.02-0.04,0.03
		c-0.01,0.01-0.02,0.01-0.03,0.02c-0.02,0.01-0.04,0.03-0.06,0.04c-0.01,0.01-0.02,0.01-0.03,0.02c-0.01,0.01-0.03,0.02-0.04,0.03
		c-0.01,0.01-0.02,0.01-0.03,0.02c-0.02,0.01-0.04,0.03-0.06,0.04c-0.01,0.01-0.02,0.01-0.03,0.02c-0.01,0.01-0.03,0.02-0.04,0.03
		c-0.01,0.01-0.02,0.02-0.04,0.03c-0.01,0.01-0.03,0.02-0.04,0.03c-0.01,0.01-0.02,0.01-0.03,0.02c-0.02,0.01-0.04,0.03-0.06,0.04
		c-0.01,0.01-0.02,0.01-0.03,0.02c-0.01,0.01-0.03,0.02-0.04,0.03c-0.01,0.01-0.02,0.01-0.03,0.02c-0.02,0.01-0.04,0.03-0.05,0.04
		c-0.01,0.01-0.02,0.01-0.03,0.02c-0.01,0.01-0.03,0.02-0.04,0.03c-0.01,0.01-0.03,0.02-0.04,0.03c-0.01,0.01-0.03,0.02-0.04,0.03
		c-0.01,0.01-0.02,0.01-0.03,0.02c-0.02,0.01-0.04,0.03-0.06,0.04c-0.01,0.01-0.02,0.01-0.02,0.02c-0.01,0.01-0.03,0.02-0.04,0.03
		c-0.01,0.01-0.02,0.01-0.03,0.02c-0.02,0.01-0.04,0.03-0.06,0.04c-0.01,0.01-0.02,0.01-0.02,0.02c-0.02,0.01-0.03,0.02-0.05,0.03
		c-0.01,0.01-0.02,0.01-0.03,0.02c-0.02,0.01-0.03,0.02-0.05,0.04c-0.01,0.01-0.02,0.01-0.03,0.02c-0.02,0.01-0.04,0.03-0.06,0.04
		c-0.01,0.01-0.02,0.01-0.02,0.02c-0.01,0.01-0.03,0.02-0.04,0.03c-0.01,0.01-0.02,0.01-0.02,0.02c-0.02,0.01-0.04,0.03-0.06,0.04
		c-0.01,0.01-0.02,0.01-0.02,0.02c-0.02,0.01-0.03,0.02-0.05,0.03c-0.01,0.01-0.02,0.01-0.03,0.02c-0.02,0.01-0.03,0.02-0.05,0.04
		c-0.01,0.01-0.02,0.01-0.03,0.02c-0.02,0.01-0.04,0.03-0.06,0.04c-0.01,0.01-0.01,0.01-0.02,0.01c-0.02,0.01-0.03,0.02-0.05,0.03
		c-0.01,0.01-0.01,0.01-0.02,0.02c-0.02,0.01-0.04,0.03-0.06,0.04c0,0-0.02,0.01-0.02,0.02c-0.02,0.01-0.03,0.02-0.05,0.03
		c-0.01,0.01-0.02,0.01-0.03,0.02c-0.02,0.01-0.04,0.02-0.05,0.04c-0.01,0.01-0.02,0.01-0.02,0.02c-0.02,0.01-0.04,0.03-0.06,0.04
		c-0.01,0.01-0.01,0.01-0.02,0.01c-0.02,0.01-0.03,0.02-0.05,0.04c-0.01,0.01-0.01,0.01-0.02,0.01c-0.02,0.01-0.04,0.03-0.06,0.04
		c0,0-0.02,0.01-0.02,0.02c-0.02,0.01-0.04,0.03-0.05,0.04c0,0-0.01,0.01-0.01,0.01c-0.02,0.01-0.04,0.03-0.06,0.04
		c-0.01,0.01-0.01,0.01-0.02,0.02c-0.02,0.01-0.04,0.03-0.06,0.04c0,0-0.01,0.01-0.01,0.01c-0.02,0.01-0.03,0.02-0.05,0.04
		c-0.01,0.01-0.01,0.01-0.02,0.02c-0.02,0.01-0.04,0.03-0.06,0.04c0,0-0.01,0.01-0.02,0.01c-0.02,0.01-0.04,0.03-0.06,0.04
		c0,0-0.01,0.01-0.01,0.01c-0.02,0.02-0.04,0.03-0.06,0.05c-0.01,0.01-0.01,0.01-0.02,0.01c-0.02,0.02-0.04,0.03-0.06,0.05
		c0,0-0.01,0.01-0.01,0.01c-0.02,0.01-0.04,0.03-0.05,0.04c0,0-0.01,0.01-0.02,0.01c-0.02,0.01-0.04,0.03-0.06,0.04
		c0,0-0.01,0.01-0.02,0.01c-0.02,0.01-0.04,0.03-0.05,0.04c0,0-0.01,0.01-0.02,0.01c-0.02,0.01-0.04,0.03-0.06,0.04
		c-0.01,0.01-0.01,0.01-0.02,0.02c-0.02,0.01-0.04,0.03-0.06,0.04c0,0-0.01,0.01-0.01,0.01c-0.02,0.01-0.04,0.03-0.05,0.04
		c0,0-0.02,0.01-0.02,0.01c-0.02,0.01-0.04,0.03-0.06,0.04c0,0-0.01,0.01-0.02,0.01c-0.02,0.01-0.04,0.03-0.05,0.04
		c0,0-0.01,0.01-0.02,0.01c-0.02,0.02-0.04,0.03-0.06,0.05c-0.01,0.01-0.01,0.01-0.02,0.01c-0.02,0.02-0.04,0.03-0.06,0.05
		c0,0-0.01,0.01-0.01,0.01c-0.02,0.01-0.04,0.03-0.06,0.04c0,0-0.01,0.01-0.02,0.01c-0.02,0.02-0.04,0.03-0.06,0.05
		c0,0-0.01,0.01-0.02,0.01c-0.02,0.01-0.04,0.03-0.06,0.04c0,0-0.01,0.01-0.01,0.01c-0.02,0.02-0.04,0.03-0.06,0.05
		c-0.01,0.01-0.01,0.01-0.02,0.01c-0.02,0.02-0.04,0.03-0.07,0.05c0,0,0,0-0.01,0c-0.02,0.01-0.04,0.03-0.06,0.04
		c0,0-0.01,0.01-0.02,0.01c-0.02,0.02-0.04,0.03-0.06,0.05c0,0-0.01,0.01-0.01,0.01c-0.02,0.01-0.04,0.03-0.06,0.04
		c0,0-0.01,0.01-0.01,0.01c-0.02,0.02-0.04,0.03-0.06,0.05c-0.01,0.01-0.01,0.01-0.02,0.01c-0.02,0.02-0.04,0.03-0.06,0.05
		c0,0-0.01,0-0.01,0.01c-0.02,0.01-0.04,0.03-0.06,0.04c0,0-0.01,0.01-0.02,0.01c-0.02,0.02-0.04,0.03-0.06,0.05
		c-0.01,0.01-0.01,0.01-0.02,0.01c-0.02,0.01-0.04,0.03-0.05,0.04c-0.01,0.01-0.01,0.01-0.01,0.01c-0.02,0.02-0.04,0.03-0.06,0.05
		c-0.01,0.01-0.01,0.01-0.02,0.01c-0.02,0.02-0.04,0.03-0.06,0.05c0,0,0,0-0.01,0.01c-0.02,0.01-0.04,0.03-0.06,0.04
		c0,0-0.01,0.01-0.02,0.01c-0.02,0.02-0.04,0.03-0.06,0.05c-0.01,0.01-0.01,0-0.01,0.01c-0.02,0.01-0.04,0.03-0.05,0.04
		c-0.01,0.01-0.01,0.01-0.02,0.01c-0.02,0.02-0.04,0.03-0.06,0.05c-0.01,0.01-0.01,0.01-0.02,0.01c-0.02,0.01-0.04,0.03-0.06,0.04
		c0,0-0.01,0-0.01,0.01c-0.02,0.01-0.04,0.03-0.06,0.04c-0.01,0.01-0.01,0.01-0.02,0.01c-0.02,0.02-0.04,0.03-0.06,0.05
		c-0.01,0.01-0.01,0.01-0.02,0.01c-0.02,0.01-0.03,0.03-0.05,0.04c-0.01,0.01-0.01,0.01-0.02,0.01c-0.02,0.02-0.04,0.03-0.06,0.05
		c-0.01,0.01-0.01,0.01-0.02,0.01c-0.02,0.01-0.04,0.03-0.06,0.04c0,0-0.01,0.01-0.01,0.01c-0.02,0.01-0.04,0.03-0.06,0.04
		c-0.01,0.01-0.01,0.01-0.02,0.02c-0.02,0.02-0.04,0.03-0.06,0.05c-0.01,0.01-0.01,0.01-0.02,0.01c-0.02,0.01-0.04,0.03-0.05,0.04
		c-0.01,0.01-0.01,0.01-0.02,0.01c-0.02,0.02-0.04,0.03-0.06,0.05c-0.01,0.01-0.01,0.01-0.02,0.02c-0.02,0.01-0.04,0.03-0.05,0.04
		c0,0-0.01,0.01-0.01,0.01c-0.02,0.01-0.04,0.03-0.06,0.04c-0.01,0.01-0.01,0.01-0.02,0.02c-0.02,0.02-0.04,0.03-0.06,0.05
		c-0.01,0.01-0.01,0.01-0.02,0.01c-0.02,0.01-0.03,0.03-0.05,0.04c-0.01,0.01-0.01,0.01-0.02,0.01c-0.02,0.01-0.04,0.03-0.06,0.04
		c-0.01,0.01-0.01,0.01-0.02,0.02c-0.02,0.01-0.03,0.03-0.05,0.04c0,0-0.01,0.01-0.02,0.01c-0.02,0.01-0.04,0.03-0.06,0.04
		c-0.01,0.01-0.01,0.01-0.02,0.02c-0.02,0.02-0.04,0.03-0.06,0.05c-0.01,0.01-0.01,0.01-0.02,0.01c-0.02,0.01-0.03,0.02-0.05,0.04
		c-0.01,0.01-0.01,0.01-0.02,0.02c-0.02,0.01-0.04,0.03-0.06,0.04c-0.01,0.01-0.02,0.01-0.02,0.02c-0.02,0.01-0.03,0.02-0.05,0.04
		c-0.01,0.01-0.02,0.01-0.02,0.02c-0.02,0.01-0.04,0.03-0.05,0.04c-0.01,0.01-0.02,0.01-0.02,0.02c-0.02,0.01-0.04,0.03-0.06,0.04
		c-0.01,0.01-0.01,0.01-0.02,0.02c-0.01,0.01-0.03,0.02-0.04,0.03c-0.01,0.01-0.02,0.01-0.02,0.02c-0.02,0.01-0.04,0.03-0.06,0.04
		c-0.01,0.01-0.01,0.01-0.02,0.02c-0.02,0.01-0.03,0.02-0.05,0.03c0,0-0.02,0.01-0.02,0.02c-0.02,0.01-0.04,0.03-0.05,0.04
		c-0.01,0.01-0.02,0.01-0.02,0.02c-0.02,0.01-0.04,0.03-0.06,0.04c-0.01,0.01-0.01,0.01-0.02,0.02c-0.01,0.01-0.03,0.02-0.04,0.03
		c-0.01,0.01-0.02,0.01-0.02,0.02c-0.02,0.01-0.04,0.03-0.06,0.04c-0.01,0.01-0.02,0.01-0.03,0.02c-0.01,0.01-0.03,0.02-0.04,0.03
		c-0.01,0.01-0.02,0.02-0.04,0.03c-0.01,0.01-0.03,0.02-0.04,0.03c-0.01,0.01-0.02,0.02-0.03,0.02c-0.01,0.01-0.03,0.02-0.04,0.03
		c-0.01,0.01-0.02,0.02-0.04,0.03c-0.01,0.01-0.02,0.02-0.04,0.03c-0.01,0.01-0.02,0.01-0.03,0.02c-0.02,0.01-0.03,0.03-0.05,0.04
		c-0.01,0.01-0.02,0.02-0.03,0.02c-0.01,0.01-0.02,0.02-0.03,0.03c-0.01,0.01-0.03,0.02-0.04,0.03c-0.01,0.01-0.03,0.02-0.04,0.03
		c-0.01,0.01-0.03,0.02-0.03,0.03c-0.01,0.01-0.02,0.02-0.03,0.03c-0.02,0.01-0.03,0.02-0.05,0.04c-0.01,0.01-0.02,0.02-0.03,0.02
		c-0.01,0.01-0.01,0.01-0.02,0.02l1.84,2.37c3.08-2.4,6.3-4.71,9.56-6.87L655.31,216.04L655.31,216.04z M636.38,230.76
		c-1.11,1.01-2.21,2.03-3.29,3.07l0,0c-0.11,0.11-0.22,0.22-0.34,0.32l0,0c-0.07,0.07-0.13,0.13-0.2,0.19l0,0
		c-0.04,0.04-0.09,0.09-0.13,0.13l0,0c-0.11,0.11-0.22,0.22-0.33,0.33c0,0,0,0,0,0c-0.02,0.02-0.04,0.04-0.07,0.06l0,0
		c-0.04,0.04-0.09,0.09-0.13,0.13l0,0c-0.04,0.04-0.09,0.09-0.13,0.13l0,0c-0.07,0.07-0.13,0.13-0.2,0.2l0,0
		c-1.27,1.25-2.51,2.52-3.73,3.82l2.18,2.06c2.68-2.83,5.51-5.6,8.41-8.23L636.38,230.76L636.38,230.76z M619.92,248.19
		c-2.51,3.11-4.91,6.32-7.16,9.62l0,0l2.48,1.7c2.2-3.21,4.56-6.39,7.02-9.43L619.92,248.19L619.92,248.19z M606.37,267.97
		c-1.71,2.98-3.31,6.02-4.81,9.11c0,0,0,0,0,0.01c-0.01,0.01-0.01,0.02-0.02,0.04c0,0,0,0,0,0.01c-0.01,0.01-0.01,0.02-0.02,0.03
		c0,0,0,0.01-0.01,0.01c-0.01,0.02-0.02,0.04-0.03,0.06c0,0.01-0.01,0.01-0.01,0.02c0,0.01-0.01,0.02-0.01,0.02
		c0,0.01-0.01,0.01-0.01,0.02c0,0.01-0.01,0.02-0.01,0.03c0,0.01-0.01,0.01-0.01,0.02c0,0.01-0.01,0.02-0.01,0.02
		c0,0.01-0.01,0.02-0.01,0.03c0,0.01-0.01,0.01-0.01,0.02c-0.01,0.02-0.01,0.03-0.02,0.05c0,0,0,0.01-0.01,0.01
		c-0.01,0.01-0.01,0.02-0.02,0.04c0,0,0,0.01-0.01,0.01c-0.01,0.01-0.01,0.03-0.02,0.04c0,0,0,0,0,0.01
		c-0.03,0.05-0.05,0.1-0.07,0.15c0,0,0,0,0,0c-0.14,0.29-0.28,0.58-0.42,0.88l2.71,1.28c1.66-3.52,3.48-7.03,5.43-10.42
		L606.37,267.97L606.37,267.97z M596.17,289.67c-0.18,0.48-0.36,0.96-0.53,1.44l0,0.01c0,0.01-0.01,0.03-0.01,0.04c0,0,0,0,0,0.01
		c-0.01,0.04-0.03,0.08-0.04,0.12l0,0.01c0,0.01-0.01,0.02-0.01,0.04c0,0,0,0.01,0,0.01c0,0.01-0.01,0.02-0.01,0.03
		c0,0,0,0.01,0,0.01c0,0.01-0.01,0.02-0.01,0.03c0,0,0,0,0,0.01c-0.01,0.02-0.02,0.05-0.02,0.07c0,0-0.01,0.01-0.01,0.02
		c0,0.01-0.01,0.02-0.01,0.03c0,0.01,0,0.01-0.01,0.02c0,0.01-0.01,0.02-0.01,0.03c0,0.01-0.01,0.02-0.01,0.03
		c0,0.01-0.01,0.01-0.01,0.02c-0.01,0.02-0.01,0.03-0.02,0.05c0,0.01,0,0.01-0.01,0.02c0,0.01-0.01,0.02-0.01,0.03
		c0,0.01,0,0.01-0.01,0.02c0,0.01-0.01,0.02-0.01,0.03c0,0.01,0,0.01-0.01,0.02c0,0.01-0.01,0.02-0.01,0.03c0,0.01,0,0.01-0.01,0.02
		c-0.01,0.02-0.01,0.03-0.02,0.05c0,0,0,0.01,0,0.01c0,0.01-0.01,0.03-0.01,0.04c0,0,0,0.01,0,0.01c0,0.01-0.01,0.03-0.01,0.04
		c0,0,0,0.01,0,0.01c-0.01,0.02-0.01,0.03-0.02,0.05c0,0,0,0,0,0c-0.02,0.06-0.04,0.11-0.06,0.16c0,0,0,0,0,0
		c-1.02,2.9-1.96,5.85-2.8,8.83l2.89,0.81c1.06-3.75,2.29-7.51,3.66-11.17L596.17,289.67L596.17,289.67z M589.66,312.74
		c-0.1,0.52-0.2,1.04-0.29,1.56l0,0c-0.01,0.06-0.02,0.11-0.03,0.17c0,0,0,0.01,0,0.01c0,0.01,0,0.02-0.01,0.03
		c0,0.01,0,0.01,0,0.02c0,0.01,0,0.02-0.01,0.03c0,0,0,0.02,0,0.02c0,0.02-0.01,0.04-0.01,0.06c0,0,0,0.02,0,0.02
		c0,0.01,0,0.02,0,0.03c0,0.01,0,0.02,0,0.03c0,0.01,0,0.02,0,0.02c0,0.01,0,0.02-0.01,0.03c0,0.01,0,0.01,0,0.02
		c0,0.02-0.01,0.03-0.01,0.05c0,0,0,0.01,0,0.01c0,0.01-0.01,0.03-0.01,0.05c0,0,0,0.01,0,0.01c0,0.01-0.01,0.03-0.01,0.04
		c0,0,0,0.01,0,0.01c-0.01,0.04-0.01,0.07-0.02,0.11c0,0,0,0,0,0c0,0.02-0.01,0.04-0.01,0.06c0,0,0,0,0,0
		c0,0.02-0.01,0.03-0.01,0.05c0,0,0,0,0,0c-0.55,3.1-1,6.24-1.34,9.4l2.98,0.33c0.42-3.88,1.02-7.79,1.76-11.62L589.66,312.74
		L589.66,312.74z M587.05,336.57c-0.03,1.24-0.05,2.5-0.05,3.75c0,0.02,0,0.03,0,0.05c0,0.01,0,0.01,0,0.02c0,0.01,0,0.02,0,0.03
		c0,0.03,0,0.06,0,0.09c0,0.02,0,0.04,0,0.06c0,0.01,0,0.01,0,0.02c0,0.02,0,0.03,0,0.05c0,0.01,0,0.01,0,0.02c0,0.01,0,0.03,0,0.04
		c0,0.01,0,0.02,0,0.03c0,0.01,0,0.02,0,0.03c0,0.01,0,0.02,0,0.03c0,0.01,0,0.02,0,0.03c0,0.01,0,0.02,0,0.03c0,0.01,0,0.02,0,0.03
		c0,0.02,0,0.02,0,0.03c0,0.01,0,0.02,0,0.03c0,0.02,0,0.02,0,0.03c0,0.01,0,0.02,0,0.03c0,0.01,0,0.02,0,0.03c0,0.01,0,0.02,0,0.03
		c0,0.01,0,0.02,0,0.03c0,0.01,0,0.02,0,0.03c0,0.01,0,0.03,0,0.04c0,0.01,0,0.02,0,0.03c0,0.01,0,0.02,0,0.03c0,0.01,0,0.02,0,0.03
		c0,0.01,0,0.03,0,0.04c0,0.01,0,0.02,0,0.03c0,0.01,0,0.03,0,0.04c0,0.01,0,0.02,0,0.03c0,0.01,0,0.03,0,0.04c0,0.01,0,0.02,0,0.02
		c0,0.01,0,0.03,0,0.04c0,0.01,0,0.02,0,0.02c0,0.01,0,0.03,0,0.04c0,0.01,0,0.01,0,0.02c0,0.01,0,0.03,0,0.04c0,0.01,0,0.01,0,0.02
		c0,0.01,0,0.03,0,0.04c0,0.01,0,0.01,0,0.02c0,0.02,0,0.02,0,0.04c0,0.01,0,0.01,0,0.02c0,0.02,0,0.03,0,0.04c0,0.01,0,0.01,0,0.02
		c0,0.02,0,0.03,0,0.04c0,0.01,0,0.01,0,0.02c0,0.02,0,0.03,0,0.05c0,0,0,0.01,0,0.01c0,0.02,0,0.04,0,0.05c0,0,0,0.01,0,0.01
		c0.02,2.2,0.09,4.38,0.21,6.56c0,0,0,0,0,0c0,0.01,0,0.02,0,0.03l3-0.16c-0.14-2.62-0.22-5.27-0.22-7.9c0-1.28,0.02-2.57,0.05-3.85
		L587.05,336.57L587.05,336.57z M591.35,360.1l-2.97,0.41c0.55,3.95,1.26,7.86,2.12,11.71c0,0,0,0,0,0c0,0.01,0.01,0.03,0.01,0.04
		l0,0c0,0.01,0.01,0.03,0.01,0.04l2.93-0.66C592.59,367.85,591.88,363.96,591.35,360.1L591.35,360.1z M596.48,383l-2.86,0.9
		c0.57,1.81,1.17,3.6,1.8,5.38l0,0.01c0,0.01,0.01,0.03,0.01,0.04c0,0,0,0,0,0.01c0.01,0.04,0.03,0.08,0.04,0.12c0,0,0,0.01,0,0.01
		c0,0.01,0.01,0.02,0.01,0.03c0,0,0,0.01,0.01,0.02c0,0.01,0.01,0.02,0.01,0.03c0,0.01,0,0.01,0.01,0.02c0,0.01,0.01,0.02,0.01,0.02
		c0,0.01,0.01,0.02,0.01,0.03c0,0.01,0.01,0.02,0.01,0.03c0,0.01,0.01,0.02,0.01,0.03c0,0.01,0,0.01,0.01,0.02
		c0,0.01,0.01,0.02,0.01,0.03c0,0.01,0.01,0.01,0.01,0.02c0,0.01,0.01,0.02,0.01,0.03c0,0.01,0,0.01,0.01,0.02
		c0.01,0.02,0.01,0.03,0.02,0.05c0,0,0,0,0,0c0.01,0.02,0.01,0.03,0.02,0.05c0,0,0,0.01,0,0.01c0,0.01,0.01,0.03,0.01,0.04
		c0,0,0,0.01,0.01,0.01c0.01,0.01,0.01,0.03,0.02,0.04c0,0,0,0.01,0,0.01c0.02,0.05,0.04,0.1,0.06,0.16c0,0,0,0,0,0.01
		c0.61,1.68,1.25,3.35,1.93,5l2.78-1.13C598.98,390.44,597.65,386.72,596.48,383L596.48,383z M605.32,404.76l-2.68,1.35
		c1.8,3.57,3.75,7.07,5.84,10.48l2.56-1.56C609,411.69,607.08,408.23,605.32,404.76L605.32,404.76z M617.56,424.81l-2.43,1.76
		c0.48,0.67,0.97,1.33,1.47,1.99c0,0.01,0.01,0.01,0.01,0.02c0.02,0.02,0.04,0.05,0.06,0.08c0,0,0,0.01,0.01,0.01
		c0.01,0.01,0.02,0.03,0.03,0.04c0.01,0.01,0.01,0.02,0.02,0.02c0.01,0.02,0.03,0.04,0.04,0.06c0.01,0.01,0.01,0.02,0.02,0.03
		c0.01,0.01,0.02,0.02,0.03,0.03c0.01,0.02,0.03,0.03,0.04,0.05c0.01,0.01,0.01,0.02,0.02,0.03c0.01,0.01,0.02,0.02,0.03,0.04
		c0.01,0.01,0.02,0.02,0.03,0.04c0.01,0.02,0.02,0.03,0.03,0.05c0.01,0.01,0.01,0.02,0.02,0.03c0.01,0.02,0.03,0.04,0.04,0.05
		c0.01,0.01,0.01,0.01,0.02,0.02c0.01,0.02,0.02,0.03,0.04,0.05c0,0,0.01,0.02,0.02,0.02c0.02,0.02,0.03,0.04,0.05,0.06
		c0,0,0.01,0.02,0.02,0.02c0.01,0.02,0.03,0.04,0.04,0.06c0,0,0,0.01,0.01,0.01c0.02,0.02,0.03,0.04,0.05,0.06
		c0,0,0.01,0.01,0.01,0.02c0.02,0.02,0.03,0.04,0.05,0.06c0,0,0,0.01,0.01,0.01c0.02,0.02,0.03,0.04,0.05,0.06l0.01,0.01
		c0.02,0.02,0.03,0.04,0.05,0.07c0,0,0,0.01,0.01,0.01c0.04,0.05,0.07,0.09,0.11,0.14c0,0,0,0,0.01,0.01
		c0.02,0.02,0.04,0.05,0.05,0.07l0,0.01c0.04,0.05,0.07,0.09,0.11,0.14l0,0c0.04,0.05,0.07,0.1,0.11,0.14l0,0
		c0.02,0.02,0.04,0.05,0.06,0.07c0,0,0,0,0,0c0.34,0.44,0.69,0.89,1.04,1.33l0,0c0.1,0.12,0.19,0.24,0.29,0.37l0,0
		c0.06,0.07,0.12,0.15,0.17,0.22l0,0c0.04,0.05,0.08,0.1,0.11,0.14l0,0c0.02,0.02,0.04,0.05,0.06,0.07l0,0
		c0.04,0.05,0.08,0.09,0.11,0.14l0.01,0.01c0.04,0.05,0.08,0.09,0.11,0.14l0,0c0.02,0.02,0.04,0.05,0.06,0.07c0,0,0,0,0.01,0.01
		c0.04,0.05,0.07,0.09,0.11,0.14c0,0,0,0,0.01,0.01c0.02,0.02,0.04,0.04,0.05,0.07l0.01,0.01c0.02,0.02,0.04,0.04,0.05,0.07
		c0,0,0,0,0,0c0.02,0.02,0.04,0.04,0.05,0.07c0,0,0.01,0.01,0.01,0.01c0.02,0.02,0.04,0.04,0.05,0.07c0,0,0,0,0,0
		c0.02,0.02,0.03,0.04,0.05,0.06c0,0,0.01,0.01,0.01,0.01c0.02,0.02,0.04,0.04,0.05,0.06c0,0,0.01,0.01,0.01,0.01
		c0.02,0.02,0.03,0.04,0.05,0.06c0,0,0,0,0,0.01c0.02,0.02,0.03,0.04,0.05,0.06c0,0,0.01,0.01,0.01,0.01
		c0.02,0.02,0.03,0.04,0.05,0.06c0,0,0.01,0.01,0.01,0.01c0.02,0.02,0.03,0.04,0.05,0.06c0.01,0.01,0,0,0.01,0.01
		c0.02,0.02,0.03,0.04,0.05,0.06c0.01,0.01,0.01,0.01,0.01,0.02c0.02,0.02,0.03,0.04,0.05,0.06c0,0,0,0,0.01,0.01
		c0.02,0.02,0.03,0.04,0.05,0.06c0,0,0.01,0.01,0.01,0.02c0.02,0.02,0.03,0.04,0.05,0.06c0,0,0.01,0.01,0.01,0.02
		c0.01,0.02,0.03,0.04,0.04,0.05c0,0,0.01,0.01,0.01,0.01c0.02,0.02,0.03,0.04,0.05,0.06c0.01,0.01,0.01,0.01,0.01,0.02
		c0.02,0.02,0.03,0.04,0.05,0.06c0,0,0.01,0.01,0.01,0.01c0.01,0.02,0.03,0.03,0.04,0.05c0.01,0.01,0.01,0.01,0.01,0.02
		c0.02,0.02,0.03,0.04,0.05,0.06c0.01,0.01,0.01,0.01,0.02,0.02c0.01,0.02,0.03,0.03,0.04,0.05c0.01,0.01,0.01,0.01,0.01,0.02
		c0.01,0.02,0.03,0.04,0.04,0.05c0.01,0.01,0.01,0.01,0.02,0.02c0.02,0.02,0.03,0.04,0.05,0.06c0.01,0.01,0.01,0.01,0.02,0.02
		c0.01,0.01,0.02,0.03,0.04,0.04c0.01,0.01,0.01,0.01,0.02,0.02c0.02,0.02,0.03,0.04,0.05,0.06c0.01,0.01,0.01,0.02,0.02,0.02
		c0.01,0.02,0.03,0.03,0.04,0.05c0,0,0.02,0.02,0.02,0.02c0.01,0.02,0.03,0.03,0.04,0.05c0.01,0.01,0.01,0.01,0.02,0.02
		c0.02,0.02,0.03,0.04,0.05,0.05c0.01,0.01,0.01,0.01,0.02,0.02c0.01,0.01,0.02,0.03,0.04,0.04c0,0,0.01,0.02,0.02,0.02
		c0.01,0.02,0.03,0.04,0.04,0.05c0.01,0.01,0.01,0.02,0.02,0.02c0.02,0.02,0.03,0.04,0.05,0.05c0.01,0.01,0.01,0.01,0.02,0.02
		c0.01,0.01,0.02,0.03,0.04,0.04c0.01,0.01,0.01,0.01,0.02,0.02c0.02,0.02,0.03,0.04,0.05,0.05c0.01,0.01,0.01,0.02,0.02,0.02
		c0.01,0.02,0.03,0.03,0.04,0.05c0.01,0.01,0.01,0.02,0.02,0.02c0.01,0.02,0.03,0.03,0.04,0.05c0.01,0.01,0.01,0.01,0.02,0.02
		c0.02,0.02,0.03,0.04,0.05,0.05c0.01,0.01,0.01,0.01,0.02,0.02c0.01,0.02,0.03,0.03,0.04,0.05c0.01,0.01,0.01,0.01,0.01,0.02
		c0.02,0.02,0.03,0.04,0.05,0.06c0.01,0.01,0.01,0.01,0.02,0.02c0.02,0.02,0.03,0.04,0.05,0.06c0.01,0.01,0.01,0.01,0.01,0.02
		c0.01,0.02,0.03,0.03,0.04,0.05c0.01,0.01,0.01,0.01,0.02,0.02c0.02,0.02,0.03,0.04,0.05,0.06c0,0,0.01,0.01,0.02,0.02
		c0.01,0.02,0.03,0.03,0.04,0.05c0,0,0.01,0.01,0.01,0.01c0.02,0.02,0.03,0.04,0.05,0.06c0.01,0.01,0.01,0.01,0.02,0.02
		c0.02,0.02,0.03,0.04,0.05,0.06c0,0,0,0,0,0.01l2.28-1.95C622.3,431.07,619.85,427.96,617.56,424.81L617.56,424.81z M632.82,442.7
		l-2.12,2.12c0.53,0.53,1.06,1.06,1.6,1.58l0,0c0.04,0.04,0.09,0.09,0.13,0.13l0,0c0.02,0.02,0.04,0.04,0.06,0.06c0,0,0,0,0.01,0.01
		c0.04,0.04,0.08,0.08,0.12,0.12c0,0,0.01,0.01,0.01,0.01c0.02,0.02,0.04,0.04,0.06,0.06c0.01,0.01,0.01,0.01,0.01,0.01
		c0.02,0.02,0.03,0.03,0.05,0.05c0.01,0.01,0.01,0.01,0.02,0.02c0.02,0.02,0.04,0.03,0.05,0.05c0.01,0.01,0.01,0.01,0.02,0.02
		c0.02,0.01,0.03,0.03,0.05,0.04c0.01,0.01,0.01,0.01,0.02,0.02c0.01,0.01,0.03,0.03,0.05,0.04c0.01,0.01,0.02,0.02,0.02,0.02
		c0.02,0.02,0.03,0.03,0.05,0.05c0.01,0.01,0.02,0.01,0.03,0.02c0.01,0.01,0.02,0.02,0.03,0.03c0.01,0.01,0.02,0.02,0.03,0.03
		c0.01,0.01,0.03,0.03,0.04,0.04c0.01,0.01,0.02,0.02,0.03,0.03c0.01,0.01,0.02,0.02,0.03,0.03c0.01,0.01,0.03,0.03,0.05,0.04
		c0.01,0.01,0.02,0.02,0.02,0.02c0.01,0.01,0.02,0.02,0.03,0.03c0.01,0.01,0.01,0.01,0.02,0.02c0.02,0.02,0.04,0.04,0.06,0.06
		c0.01,0.01,0.01,0.01,0.02,0.02c0.02,0.02,0.04,0.04,0.06,0.06c0,0,0.01,0.01,0.01,0.01c0.01,0.01,0.02,0.02,0.04,0.04
		c0,0,0.01,0.01,0.01,0.01c0.02,0.02,0.05,0.04,0.07,0.06c0,0,0.01,0.01,0.01,0.01c0.04,0.04,0.08,0.07,0.12,0.11c0,0,0,0,0.01,0.01
		c1.63,1.55,3.29,3.06,4.99,4.54c0,0,0.01,0,0.01,0.01c0.04,0.04,0.08,0.07,0.13,0.11c0,0,0,0,0.01,0.01
		c0.03,0.02,0.05,0.04,0.08,0.07c0,0,0.01,0.01,0.01,0.01c0.01,0.01,0.03,0.02,0.04,0.04c0,0,0,0,0,0c0.03,0.02,0.05,0.04,0.08,0.07
		c0.01,0.01,0.01,0.01,0.02,0.02c0.02,0.02,0.04,0.04,0.07,0.06c0,0,0.01,0.01,0.01,0.01c0.01,0.01,0.02,0.02,0.04,0.03
		c0.01,0.01,0.01,0.01,0.02,0.02c0.02,0.02,0.03,0.03,0.06,0.05c0.01,0.01,0.02,0.01,0.02,0.02c0.01,0.01,0.02,0.02,0.03,0.03
		c0.01,0.01,0.02,0.02,0.04,0.03c0.01,0.01,0.03,0.02,0.04,0.04c0.01,0.01,0.02,0.02,0.03,0.02c0.01,0.01,0.02,0.01,0.02,0.02
		l1.96-2.27C638.47,448.15,635.57,445.46,632.82,442.7L632.82,442.7z M650.65,458.04l-1.78,2.42c1.58,1.16,3.18,2.3,4.81,3.41
		c0,0,0,0,0,0c0.05,0.03,0.1,0.07,0.15,0.1l0.01,0.01c0.02,0.02,0.05,0.03,0.07,0.05l0,0c0.02,0.02,0.05,0.03,0.07,0.05l0.01,0.01
		c0.02,0.02,0.05,0.03,0.07,0.05c0,0,0.01,0.01,0.01,0.01c0.02,0.01,0.04,0.03,0.07,0.04c0,0,0,0,0,0c0.02,0.02,0.05,0.03,0.07,0.05
		c0.01,0.01,0.01,0.01,0.02,0.01c0.02,0.01,0.04,0.03,0.07,0.04c0,0,0.01,0.01,0.01,0.01c0.02,0.01,0.04,0.03,0.06,0.04
		c0,0,0.02,0.01,0.02,0.01c0.02,0.01,0.04,0.03,0.06,0.04c0,0,0.02,0.01,0.02,0.01c0.02,0.01,0.04,0.02,0.05,0.04
		c0.01,0.01,0.01,0.01,0.02,0.01c0.02,0.01,0.04,0.03,0.06,0.04c0.01,0.01,0.01,0.01,0.02,0.02c0.02,0.01,0.04,0.03,0.06,0.04
		c0,0,0.02,0.01,0.02,0.01c0.02,0.01,0.03,0.02,0.05,0.03c0,0,0.02,0.01,0.02,0.02c0.02,0.01,0.04,0.03,0.06,0.04
		c0.01,0.01,0.02,0.01,0.03,0.02c0.01,0.01,0.03,0.02,0.04,0.03c0.01,0.01,0.02,0.01,0.03,0.02c0.02,0.01,0.04,0.03,0.06,0.04
		c0.01,0.01,0.02,0.01,0.03,0.02c0.01,0.01,0.03,0.02,0.04,0.03c0.01,0.01,0.03,0.02,0.04,0.03c0.01,0.01,0.03,0.02,0.04,0.03
		c0.01,0.01,0.02,0.01,0.03,0.02c0.02,0.01,0.04,0.02,0.06,0.04c0.01,0.01,0.02,0.01,0.03,0.02c0.01,0.01,0.02,0.02,0.04,0.02
		c0.01,0.01,0.02,0.01,0.03,0.02c0.02,0.01,0.04,0.02,0.06,0.04c0.01,0.01,0.02,0.01,0.03,0.02c0.01,0.01,0.03,0.02,0.04,0.03
		c0.02,0.01,0.03,0.02,0.04,0.03c0.01,0.01,0.03,0.02,0.04,0.03c0.01,0.01,0.02,0.01,0.03,0.02c0.02,0.01,0.03,0.02,0.05,0.03
		c0.02,0.01,0.03,0.02,0.04,0.03c0.01,0.01,0.02,0.01,0.03,0.02c0.01,0.01,0.02,0.01,0.03,0.02c0.02,0.01,0.03,0.02,0.05,0.03
		c0.01,0.01,0.02,0.02,0.04,0.02c0.01,0.01,0.02,0.01,0.03,0.02c0.02,0.01,0.04,0.03,0.06,0.04c0.01,0.01,0.02,0.01,0.03,0.02
		c0.01,0.01,0.03,0.02,0.04,0.02c0.01,0.01,0.02,0.01,0.03,0.02c0.02,0.01,0.04,0.02,0.06,0.04c0.01,0.01,0.02,0.01,0.03,0.02
		c0.02,0.01,0.03,0.02,0.05,0.03c0.01,0.01,0.03,0.02,0.04,0.03c0.01,0.01,0.02,0.02,0.04,0.02c0.01,0.01,0.02,0.01,0.03,0.02
		c0.02,0.01,0.04,0.02,0.06,0.04c0.01,0.01,0.02,0.01,0.03,0.02c0.01,0.01,0.02,0.02,0.04,0.02c0.01,0.01,0.02,0.01,0.03,0.02
		c0.02,0.01,0.03,0.02,0.05,0.04c0.01,0.01,0.02,0.01,0.03,0.02c0.01,0.01,0.02,0.01,0.04,0.02c0.02,0.01,0.04,0.02,0.05,0.03
		c0.01,0.01,0.02,0.01,0.04,0.02c0.01,0.01,0.02,0.01,0.03,0.02c0.01,0.01,0.03,0.02,0.05,0.03c0.01,0.01,0.03,0.02,0.04,0.03
		c0.01,0.01,0.02,0.02,0.03,0.02c0.01,0.01,0.03,0.02,0.04,0.03c0.01,0.01,0.03,0.02,0.04,0.03c0.01,0.01,0.02,0.02,0.04,0.02
		c0.01,0.01,0.02,0.01,0.03,0.02c0.02,0.01,0.04,0.02,0.06,0.04c0.01,0.01,0.02,0.01,0.03,0.02c0.01,0.01,0.03,0.02,0.04,0.03
		c0.01,0.01,0.02,0.01,0.02,0.02c0.02,0.01,0.04,0.03,0.06,0.04c0.01,0.01,0.02,0.01,0.02,0.02c0.02,0.01,0.04,0.02,0.05,0.03
		c0.01,0.01,0.02,0.01,0.03,0.02c0.02,0.01,0.03,0.02,0.05,0.03c0,0,0.02,0.01,0.02,0.01c0.02,0.01,0.04,0.03,0.06,0.04
		c0.01,0.01,0.01,0.01,0.02,0.01c0.02,0.01,0.03,0.02,0.05,0.03c0.01,0.01,0.01,0.01,0.02,0.01c0.02,0.01,0.04,0.03,0.06,0.04
		c0.01,0.01,0.01,0.01,0.02,0.01c0.02,0.01,0.04,0.03,0.07,0.04c0,0,0,0,0.01,0.01c0.02,0.01,0.04,0.03,0.06,0.04
		c0,0,0.01,0.01,0.02,0.01c0.02,0.01,0.05,0.03,0.07,0.04l0.01,0.01c0.02,0.01,0.04,0.03,0.07,0.04l0.01,0.01
		c0.02,0.02,0.05,0.03,0.07,0.05c0,0,0.01,0,0.01,0.01c0.05,0.03,0.1,0.06,0.15,0.09c0,0,0,0,0.01,0c0.03,0.02,0.05,0.03,0.08,0.05
		l0,0c0.21,0.13,0.42,0.27,0.64,0.4l1.59-2.54C657.07,462.58,653.79,460.35,650.65,458.04L650.65,458.04z M670.59,470.53l-1.4,2.65
		c1.05,0.55,2.1,1.09,3.16,1.62c0,0,0,0,0,0c0.05,0.03,0.11,0.05,0.16,0.08l0.01,0.01c0.05,0.03,0.1,0.05,0.16,0.08
		c0,0,0.01,0,0.01,0.01c0.03,0.01,0.05,0.03,0.08,0.04l0.01,0c0.02,0.01,0.05,0.02,0.07,0.04l0.01,0.01
		c0.02,0.01,0.05,0.02,0.07,0.04c0,0,0.01,0.01,0.02,0.01c0.02,0.01,0.04,0.02,0.07,0.03c0,0,0,0,0.01,0
		c0.02,0.01,0.05,0.02,0.07,0.04c0.01,0,0.01,0,0.02,0.01c0.02,0.01,0.05,0.02,0.07,0.04c0,0,0.01,0,0.01,0.01
		c0.02,0.01,0.04,0.02,0.06,0.03c0,0,0.02,0.01,0.02,0.01c0.02,0.01,0.05,0.02,0.07,0.03c0.01,0,0.01,0.01,0.02,0.01
		c0.02,0.01,0.04,0.02,0.06,0.03c0.01,0,0.01,0.01,0.02,0.01c0.02,0.01,0.05,0.02,0.07,0.03c0,0,0.02,0.01,0.02,0.01
		c0.02,0.01,0.04,0.02,0.06,0.03c0,0,0.01,0,0.01,0.01c0.02,0.01,0.05,0.02,0.07,0.03c0.01,0,0.02,0.01,0.02,0.01
		c0.02,0.01,0.04,0.02,0.06,0.03c0,0,0.02,0.01,0.02,0.01c0.02,0.01,0.03,0.02,0.05,0.03c0.01,0,0.02,0.01,0.03,0.01
		c0.02,0.01,0.04,0.02,0.06,0.03c0.01,0,0.02,0.01,0.03,0.01c0.02,0.01,0.03,0.02,0.05,0.02c0.01,0,0.02,0.01,0.02,0.01
		c0.02,0.01,0.04,0.02,0.07,0.03c0.01,0,0.02,0.01,0.03,0.01c0.02,0.01,0.03,0.02,0.05,0.02c0.01,0.01,0.02,0.01,0.04,0.02
		c0.02,0.01,0.04,0.02,0.05,0.03c0.01,0,0.02,0.01,0.03,0.01c0.02,0.01,0.04,0.02,0.06,0.03c0.01,0.01,0.02,0.01,0.03,0.01
		c0.02,0.01,0.03,0.02,0.05,0.02c0.01,0,0.02,0.01,0.03,0.01c0.02,0.01,0.04,0.02,0.06,0.03c0.01,0,0.02,0.01,0.03,0.01
		c0.02,0.01,0.03,0.01,0.05,0.02c0.01,0,0.02,0.01,0.03,0.01c0.02,0.01,0.04,0.02,0.06,0.03c0.01,0,0.02,0.01,0.03,0.01
		c0.02,0.01,0.03,0.02,0.05,0.02c0.01,0.01,0.02,0.01,0.03,0.01c0.02,0.01,0.04,0.02,0.06,0.03c0.01,0,0.02,0.01,0.03,0.01
		c0.02,0.01,0.04,0.02,0.06,0.03c0.01,0,0.02,0.01,0.03,0.01c0.02,0.01,0.03,0.02,0.05,0.02c0.01,0,0.02,0.01,0.03,0.01
		c0.02,0.01,0.04,0.02,0.07,0.03c0.01,0,0.02,0.01,0.02,0.01c0.02,0.01,0.03,0.02,0.05,0.02c0.01,0,0.02,0.01,0.03,0.01
		c0.02,0.01,0.04,0.02,0.07,0.03c0,0,0.02,0.01,0.02,0.01c0.02,0.01,0.04,0.02,0.06,0.03c0,0,0.01,0.01,0.02,0.01
		c0.02,0.01,0.04,0.02,0.07,0.03c0.01,0,0.01,0.01,0.02,0.01c0.02,0.01,0.05,0.02,0.07,0.03c0,0,0.01,0.01,0.02,0.01
		c0.02,0.01,0.04,0.02,0.06,0.03c0,0,0.02,0.01,0.02,0.01c0.02,0.01,0.05,0.02,0.07,0.03c0.01,0,0.01,0.01,0.02,0.01
		c0.02,0.01,0.04,0.02,0.06,0.03c0.01,0,0.01,0,0.02,0.01c0.02,0.01,0.05,0.02,0.07,0.03c0,0,0.02,0.01,0.02,0.01
		c0.02,0.01,0.04,0.02,0.06,0.03c0,0,0.01,0,0.01,0c0.02,0.01,0.05,0.02,0.07,0.03c0.01,0,0.01,0.01,0.02,0.01
		c0.02,0.01,0.05,0.02,0.07,0.03c0,0,0,0,0.01,0c0.02,0.01,0.05,0.02,0.07,0.03c0,0,0.01,0.01,0.02,0.01
		c0.03,0.01,0.05,0.02,0.07,0.03l0.01,0.01c0.02,0.01,0.05,0.02,0.07,0.03l0.01,0c0.03,0.01,0.05,0.02,0.08,0.04
		c0,0,0.01,0,0.01,0.01c0.03,0.01,0.05,0.02,0.08,0.03l0,0c0.03,0.01,0.05,0.02,0.08,0.04c0,0,0.01,0,0.01,0.01
		c0.03,0.01,0.05,0.02,0.08,0.04l0,0c0.03,0.01,0.05,0.02,0.08,0.04c0,0,0.01,0,0.01,0c0.03,0.01,0.05,0.02,0.08,0.04l0.01,0
		c0.03,0.01,0.05,0.02,0.08,0.04l0,0c0.03,0.01,0.06,0.03,0.08,0.04c0,0,0,0,0.01,0c0.05,0.02,0.11,0.05,0.16,0.07l0.01,0
		c0.05,0.02,0.11,0.05,0.16,0.07c0,0,0,0,0.01,0c0.08,0.04,0.17,0.08,0.25,0.12c0,0,0,0,0,0c0.77,0.35,1.54,0.69,2.32,1.03l1.2-2.75
		C677.62,474.06,674.04,472.35,670.59,470.53L670.59,470.53z M692.17,479.92l-0.99,2.83c0,0,0.01,0,0.01,0
		c0.04,0.01,0.08,0.03,0.12,0.04l0,0c0.01,0,0.03,0.01,0.04,0.01c0,0,0,0,0,0c0.04,0.01,0.09,0.03,0.13,0.04l0,0
		c0.01,0,0.03,0.01,0.04,0.01l0.01,0c0.06,0.02,0.11,0.04,0.17,0.06l0,0c0.06,0.02,0.12,0.04,0.17,0.06c0,0,0,0,0,0
		c2.13,0.74,4.28,1.43,6.46,2.08l0,0c0.19,0.06,0.39,0.12,0.58,0.17l0,0c0.06,0.02,0.12,0.03,0.18,0.05c0,0,0,0,0,0
		c0.01,0,0.03,0.01,0.04,0.01c0,0,0,0,0,0c0.04,0.01,0.08,0.02,0.13,0.04c0,0,0,0,0.01,0c0.01,0,0.02,0.01,0.04,0.01l0.01,0
		c0.01,0,0.02,0.01,0.04,0.01l0.01,0c0.04,0.01,0.08,0.02,0.12,0.04c0,0,0.01,0,0.01,0c0.01,0,0.02,0.01,0.04,0.01
		c0,0,0.01,0,0.01,0c0.04,0.01,0.08,0.02,0.12,0.04c0,0,0,0,0.01,0c0.01,0,0.02,0.01,0.03,0.01c0,0,0.01,0,0.02,0.01
		c0.01,0,0.02,0.01,0.03,0.01l0.01,0c0.03,0.01,0.05,0.02,0.08,0.02l0.01,0c0.01,0,0.02,0.01,0.04,0.01c0.01,0,0.01,0,0.02,0
		c0.01,0,0.02,0.01,0.03,0.01c0,0,0.01,0,0.02,0c0.02,0.01,0.05,0.01,0.07,0.02l0.01,0c0.01,0,0.02,0.01,0.03,0.01
		c0,0,0.02,0,0.02,0.01c0.01,0,0.02,0.01,0.03,0.01c0,0,0.01,0,0.02,0.01c0.01,0,0.02,0.01,0.03,0.01l0,0
		c0.02,0.01,0.05,0.01,0.07,0.02c0,0,0.02,0,0.02,0.01c0.01,0,0.02,0.01,0.03,0.01c0.01,0,0.01,0,0.02,0.01
		c0.01,0,0.02,0.01,0.03,0.01c0,0,0.01,0,0.02,0c0.02,0.01,0.04,0.01,0.06,0.02c0,0,0.02,0.01,0.02,0.01c0.01,0,0.02,0.01,0.03,0.01
		c0.01,0,0.01,0,0.02,0.01c0.01,0,0.02,0.01,0.03,0.01c0,0,0.01,0,0.01,0c0.04,0.01,0.08,0.02,0.11,0.03c0,0,0.01,0,0.02,0
		c0.01,0,0.02,0.01,0.03,0.01c0,0,0.01,0,0.02,0.01c0.01,0,0.02,0.01,0.03,0.01l0.01,0c0.02,0.01,0.04,0.01,0.07,0.02
		c0,0,0.01,0,0.02,0.01c0.01,0,0.02,0.01,0.03,0.01c0.01,0,0.01,0,0.02,0.01c0.01,0,0.02,0.01,0.03,0.01c0,0,0.01,0,0.02,0.01
		c0.02,0.01,0.04,0.01,0.07,0.02l0.01,0c0.01,0,0.02,0.01,0.03,0.01c0.01,0,0.01,0,0.02,0.01c0.01,0,0.02,0.01,0.03,0.01
		c0.01,0,0.02,0,0.03,0.01c0.01,0,0.02,0,0.02,0.01c0.02,0.01,0.03,0.01,0.05,0.01c0.01,0,0.02,0,0.03,0.01c0.01,0,0.01,0,0.02,0.01
		c0.01,0,0.02,0.01,0.03,0.01c0.01,0,0.01,0,0.02,0.01c0.01,0,0.02,0.01,0.03,0.01c0,0,0.02,0.01,0.03,0.01
		c0.02,0,0.03,0.01,0.05,0.01c0,0,0.02,0.01,0.02,0.01c0.01,0,0.02,0.01,0.03,0.01c0.01,0,0.01,0,0.02,0.01
		c0.01,0,0.02,0.01,0.03,0.01c0,0,0.02,0.01,0.02,0.01c0.02,0,0.04,0.01,0.05,0.01c0,0,0.02,0,0.02,0.01c0.01,0,0.02,0.01,0.03,0.01
		c0.01,0,0.01,0,0.02,0.01c0.01,0,0.02,0.01,0.03,0.01c0.01,0,0.01,0,0.02,0.01c0.01,0,0.02,0.01,0.03,0.01
		c0.01,0,0.03,0.01,0.05,0.01c0.01,0,0.01,0,0.02,0.01c0.01,0,0.02,0.01,0.03,0.01c0.01,0,0.02,0,0.02,0.01
		c0.01,0,0.02,0.01,0.03,0.01c0.01,0,0.02,0,0.02,0.01c0.01,0,0.02,0.01,0.03,0.01c0.01,0,0.03,0.01,0.04,0.01
		c0.01,0,0.02,0.01,0.03,0.01c0.01,0,0.02,0,0.03,0.01c0.01,0,0.02,0,0.03,0.01c0.01,0,0.02,0,0.03,0.01c0.01,0,0.02,0,0.03,0.01
		c0.01,0,0.02,0,0.03,0.01c0.02,0.01,0.03,0.01,0.05,0.01c0.01,0,0.02,0,0.03,0.01c0.01,0,0.02,0.01,0.03,0.01
		c0.01,0,0.02,0,0.02,0.01c0.01,0,0.02,0,0.03,0.01c0.01,0,0.02,0,0.03,0.01c0.01,0,0.02,0.01,0.03,0.01c0.01,0,0.03,0.01,0.04,0.01
		c0,0,0.02,0.01,0.02,0.01c0.01,0,0.02,0.01,0.03,0.01c0.01,0,0.01,0,0.02,0.01c0.01,0,0.02,0.01,0.03,0.01c0,0,0.02,0.01,0.03,0.01
		c0.01,0,0.03,0.01,0.04,0.01c0.01,0,0.02,0,0.03,0.01l0.78-2.9C699.64,482.38,695.85,481.21,692.17,479.92L692.17,479.92z
		 M714.9,486.05l-0.57,2.95c1.65,0.32,3.3,0.61,4.96,0.88l0,0c0.04,0.01,0.09,0.01,0.13,0.02l0,0c0.01,0,0.02,0,0.04,0.01
		c0.01,0,0.01,0,0.02,0c0.01,0,0.02,0,0.04,0.01c0.01,0,0.01,0,0.01,0c0.03,0,0.05,0.01,0.08,0.01l0.01,0c0.01,0,0.02,0,0.04,0.01
		c0.01,0,0.01,0,0.02,0c0.01,0,0.02,0,0.03,0.01c0.01,0,0.01,0,0.02,0c0.02,0,0.05,0.01,0.07,0.01c0.01,0,0.01,0,0.01,0
		c0.01,0,0.02,0,0.03,0.01c0.01,0,0.01,0,0.02,0c0.01,0,0.02,0,0.03,0c0.01,0,0.02,0,0.02,0c0.02,0,0.03,0.01,0.05,0.01
		c0.01,0,0.02,0,0.03,0c0.01,0,0.02,0,0.03,0c0.01,0,0.02,0,0.03,0c0.01,0,0.02,0,0.03,0c0.01,0,0.03,0,0.04,0.01
		c0.01,0,0.01,0,0.02,0c0.02,0,0.03,0.01,0.05,0.01c0.01,0,0.01,0,0.02,0c0.01,0,0.03,0,0.04,0.01c0.01,0,0.01,0,0.02,0
		c0.02,0,0.03,0,0.04,0.01c0.01,0,0.01,0,0.01,0c0.02,0,0.03,0.01,0.05,0.01c0.01,0,0.01,0,0.02,0c0.01,0,0.03,0,0.04,0.01
		c0.01,0,0.01,0,0.02,0c0.02,0,0.03,0,0.05,0.01c0,0,0.01,0,0.01,0c0.02,0,0.04,0.01,0.06,0.01c0,0,0.01,0,0.01,0
		c0.02,0,0.03,0,0.05,0.01c0,0,0.01,0,0.01,0c0.02,0,0.03,0,0.05,0.01c0,0,0,0,0.01,0c0.02,0,0.04,0.01,0.06,0.01c0,0,0,0,0.01,0
		c0.02,0,0.03,0,0.05,0.01c0.01,0,0.01,0,0.02,0c0.02,0,0.03,0.01,0.05,0.01c0,0,0,0,0.01,0c0.02,0,0.04,0.01,0.06,0.01c0,0,0,0,0,0
		c0.02,0,0.04,0.01,0.06,0.01c0,0,0,0,0.01,0c0.02,0,0.04,0.01,0.06,0.01c0,0,0,0,0,0c0.04,0.01,0.08,0.01,0.12,0.02c0,0,0,0,0.01,0
		c0.06,0.01,0.12,0.02,0.18,0.03c0,0,0,0,0,0c0.06,0.01,0.12,0.02,0.18,0.03c0,0,0,0,0.01,0c0.12,0.02,0.24,0.04,0.37,0.05
		c0,0,0,0,0,0c0.76,0.11,1.52,0.21,2.29,0.31c0,0,0,0,0,0c0.06,0.01,0.12,0.02,0.18,0.02c0,0,0,0,0,0c0.06,0.01,0.12,0.02,0.18,0.02
		c0,0,0,0,0,0c0.06,0.01,0.12,0.02,0.18,0.02c0,0,0.01,0,0.01,0c0.02,0,0.03,0,0.05,0.01c0,0,0,0,0.01,0
		c0.04,0.01,0.08,0.01,0.12,0.01c0,0,0.01,0,0.01,0c0.02,0,0.03,0,0.05,0.01c0,0,0.01,0,0.01,0c0.02,0,0.04,0,0.06,0.01c0,0,0,0,0,0
		c0.02,0,0.04,0,0.05,0.01c0.01,0,0.01,0,0.02,0c0.01,0,0.03,0,0.04,0.01c0,0,0.01,0,0.01,0c0.02,0,0.03,0,0.06,0.01
		c0,0,0.01,0,0.01,0c0.01,0,0.03,0,0.04,0.01c0.01,0,0.01,0,0.02,0c0.01,0,0.03,0,0.04,0c0.01,0,0.01,0,0.02,0
		c0.02,0,0.04,0,0.06,0.01c0,0,0,0,0,0c0.02,0,0.03,0,0.05,0.01c0.01,0,0.01,0,0.02,0c0.01,0,0.02,0,0.03,0c0.01,0,0.02,0,0.02,0
		c0.02,0,0.03,0,0.05,0.01c0.01,0,0.01,0,0.02,0c0.01,0,0.03,0,0.04,0c0.01,0,0.02,0,0.03,0c0.01,0,0.02,0,0.03,0
		c0.01,0,0.02,0,0.03,0c0.01,0,0.02,0,0.03,0c0.02,0,0.03,0,0.05,0.01c0.01,0,0.02,0,0.02,0c0.01,0,0.02,0,0.03,0
		c0.01,0,0.01,0,0.02,0c0.01,0,0.02,0,0.03,0c0.01,0,0.02,0,0.02,0c0.02,0,0.04,0,0.06,0.01c0.01,0,0.01,0,0.02,0
		c0.01,0,0.02,0,0.04,0c0.01,0,0.01,0,0.02,0c0.01,0,0.03,0,0.04,0l0.01,0c0.01,0,0.03,0,0.04,0l0.35-2.98
		C722.65,487.39,718.73,486.79,714.9,486.05L714.9,486.05z M738.28,488.82l-0.14,3c0.65,0.03,1.29,0.06,1.94,0.08l0.01,0
		c0.01,0,0.03,0,0.04,0c0.01,0,0.02,0,0.02,0c0.01,0,0.02,0,0.04,0c0.01,0,0.02,0,0.03,0c0.01,0,0.02,0,0.03,0c0.01,0,0.02,0,0.03,0
		c0.01,0,0.02,0,0.03,0c0.01,0,0.02,0,0.03,0c0.01,0,0.02,0,0.03,0c0.01,0,0.02,0,0.03,0c0.01,0,0.02,0,0.03,0c0.01,0,0.03,0,0.04,0
		c0.01,0,0.02,0,0.03,0c0.01,0,0.03,0,0.04,0c0.01,0,0.01,0,0.02,0c0.01,0,0.03,0,0.04,0c0.01,0,0.02,0,0.02,0c0.01,0,0.03,0,0.04,0
		c0.01,0,0.01,0,0.02,0c0.01,0,0.03,0,0.05,0c0.01,0,0.01,0,0.02,0c0.02,0,0.03,0,0.05,0c0.01,0,0.01,0,0.02,0c0.02,0,0.03,0,0.05,0
		c0,0,0.01,0,0.01,0c0.02,0,0.03,0,0.05,0c0,0,0.01,0,0.01,0c0.02,0,0.04,0,0.06,0c0,0,0,0,0,0c0.79,0.02,1.58,0.04,2.37,0.05h0
		c0.02,0,0.04,0,0.06,0c0,0,0,0,0,0c0.02,0,0.04,0,0.06,0c0,0,0,0,0,0c0.02,0,0.04,0,0.06,0c0,0,0,0,0,0c0.02,0,0.04,0,0.06,0
		c0,0,0,0,0,0c0.02,0,0.04,0,0.06,0c0,0,0,0,0.01,0c0.02,0,0.04,0,0.06,0c0,0,0,0,0.01,0c0.02,0,0.04,0,0.06,0c0,0,0,0,0.01,0
		c0.02,0,0.04,0,0.06,0c0,0,0,0,0.01,0c0.02,0,0.03,0,0.06,0c0,0,0.01,0,0.01,0c0.02,0,0.04,0,0.06,0c0,0,0,0,0,0
		c0.02,0,0.04,0,0.06,0c0,0,0,0,0.01,0c0.02,0,0.04,0,0.06,0c0,0,0,0,0,0c0.02,0,0.04,0,0.06,0c0,0,0,0,0,0c0.13,0,0.26,0,0.38,0
		c0,0,0,0,0,0c0.02,0,0.04,0,0.06,0c0,0,0,0,0.01,0c0.02,0,0.03,0,0.06,0c0,0,0.01,0,0.01,0c0.02,0,0.03,0,0.05,0
		c0.01,0,0.01,0,0.02,0c0.02,0,0.03,0,0.05,0c0.01,0,0.01,0,0.02,0c0.02,0,0.03,0,0.04,0c0.01,0,0.01,0,0.02,0c0.02,0,0.03,0,0.04,0
		c0.01,0,0.01,0,0.02,0c0.02,0,0.03,0,0.04,0c0.01,0,0.01,0,0.02,0c0.01,0,0.03,0,0.04,0c0.01,0,0.01,0,0.02,0c0.01,0,0.03,0,0.04,0
		c0.01,0,0.01,0,0.02,0c0.01,0,0.03,0,0.04,0c0.01,0,0.02,0,0.02,0c0.01,0,0.03,0,0.04,0c0.01,0,0.02,0,0.03,0c0.01,0,0.03,0,0.04,0
		c0.01,0,0.02,0,0.03,0c0.01,0,0.02,0,0.04,0c0.01,0,0.02,0,0.03,0c0.01,0,0.02,0,0.03,0c0.01,0,0.02,0,0.03,0c0.01,0,0.02,0,0.03,0
		c0.01,0,0.02,0,0.03,0c0.01,0,0.02,0,0.03,0c0.01,0,0.02,0,0.03,0c0.01,0,0.02,0,0.03,0c0.01,0,0.02,0,0.03,0c0.01,0,0.02,0,0.03,0
		c0.01,0,0.02,0,0.03,0c0.01,0,0.02,0,0.03,0c0.01,0,0.02,0,0.03,0c0.01,0,0.02,0,0.03,0c0.01,0,0.02,0,0.03,0c0.01,0,0.03,0,0.04,0
		c0.01,0,0.02,0,0.03,0c0.02,0,0.04,0,0.06,0l0,0c0.04,0,0.09,0,0.13,0c0.01,0,0.01,0,0.01,0c0.02,0,0.03,0,0.05,0
		c0.01,0,0.02,0,0.03,0c0.01,0,0.02,0,0.03,0c0.01,0,0.02,0,0.03,0c0.01,0,0.02,0,0.04,0c0.01,0,0.02,0,0.03,0c0.01,0,0.03,0,0.04,0
		c0.01,0,0.02,0,0.03,0c0.01,0,0.02,0,0.04,0c0.01,0,0.02,0,0.03,0c0.01,0,0.02,0,0.03,0c0.02,0,0.02,0,0.04,0c0.01,0,0.02,0,0.02,0
		c0.02,0,0.02,0,0.04,0c0.01,0,0.02,0,0.03,0c0.02,0,0.02,0,0.04,0c0.01,0,0.02,0,0.03,0c0.02,0,0.02,0,0.04,0c0.01,0,0.02,0,0.02,0
		c0.02,0,0.03,0,0.05,0c0.01,0,0.01,0,0.02,0c0.02,0,0.03,0,0.05,0c0.01,0,0.01,0,0.02,0c0.02,0,0.03,0,0.04,0c0.01,0,0.01,0,0.02,0
		c0.02,0,0.03,0,0.04,0c0.01,0,0.02,0,0.02,0c0.02,0,0.03,0,0.04,0c0.01,0,0.01,0,0.02,0c0.02,0,0.03,0,0.05,0c0.01,0,0.01,0,0.02,0
		c0.02,0,0.03,0,0.05,0c0.01,0,0.01,0,0.02,0c0.02,0,0.03,0,0.04,0c0.01,0,0.01,0,0.02,0c0.02,0,0.03,0,0.05,0c0.01,0,0.01,0,0.02,0
		c0.02,0,0.03,0,0.04,0c0.01,0,0.01,0,0.02,0c0.02,0,0.03,0,0.04,0c0.01,0,0.02,0,0.02,0c0.02,0,0.03,0,0.04,0c0.01,0,0.02,0,0.02,0
		c0.02,0,0.03,0,0.04,0c0.01,0,0.01,0,0.02,0c0.02,0,0.03,0,0.04,0c0.01,0,0.01,0,0.02,0c0.02,0,0.03,0,0.04,0c0.01,0,0.01,0,0.02,0
		c0.02,0,0.03,0,0.04,0c0.01,0,0.02,0,0.02,0c0.02,0,0.03,0,0.04,0c0.01,0,0.01,0,0.02,0c0.02,0,0.03,0,0.04,0c0.01,0,0.01,0,0.02,0
		c0.02,0,0.03,0,0.05,0c0.01,0,0.01,0,0.02,0c0.02,0,0.03,0,0.04,0c0.01,0,0.01,0,0.02,0c0.02,0,0.03,0,0.05,0c0.01,0,0.01,0,0.02,0
		c0.02,0,0.03,0,0.05,0c0.01,0,0.01,0,0.02,0c0.02,0,0.03,0,0.05,0c0.01,0,0.01,0,0.02,0c0.02,0,0.03,0,0.05,0c0.01,0,0.01,0,0.02,0
		c0.02,0,0.03,0,0.05,0c0.01,0,0.01,0,0.02,0c0.02,0,0.03,0,0.05,0c0.01,0,0.01,0,0.02,0c0.02,0,0.03,0,0.05,0c0.01,0,0.01,0,0.02,0
		c0.02,0,0.03,0,0.05,0c0.01,0,0.01,0,0.02,0c0.02,0,0.03,0,0.05,0c0.01,0,0.01,0,0.02,0c0.02,0,0.03,0,0.05,0c0.01,0,0.01,0,0.02,0
		c0.02,0,0.03,0,0.05,0c0.01,0,0.01,0,0.02,0c0.02,0,0.03,0,0.05,0c0.01,0,0.01,0,0.02,0c0.02,0,0.03,0,0.05,0c0.01,0,0.01,0,0.02,0
		c0.02,0,0.03,0,0.05,0c0.01,0,0.01,0,0.02,0c0.02,0,0.03,0,0.05,0c0.01,0,0.01,0,0.02,0c0.02,0,0.03,0,0.05,0c0.01,0,0.01,0,0.02,0
		c0.02,0,0.03,0,0.05,0c0,0,0.01,0,0.01,0c0.02,0,0.03,0,0.05,0c0.01,0,0.01,0,0.01,0c0.02,0,0.03,0,0.05,0c0,0,0.01,0,0.01,0
		c0.02,0,0.03,0,0.05,0c0.01,0,0.01,0,0.02,0c0.02,0,0.03,0,0.05,0c0,0,0.01,0,0.01,0c0.02,0,0.03,0,0.05,0c0,0,0.01,0,0.01,0
		c0.02,0,0.03,0,0.05,0c0.01,0,0.01,0,0.02,0c0.02,0,0.03,0,0.05,0c0.01,0,0.01,0,0.02,0c0.02,0,0.03,0,0.05,0c0,0,0.01,0,0.01,0
		c0.02,0,0.03,0,0.05,0c0.01,0,0.01,0,0.02,0c0.02,0,0.03,0,0.05,0c0.01,0,0.01,0,0.02,0c0.01,0,0.04,0,0.05,0c0.01,0,0.01,0,0.02,0
		c0.02,0,0.03,0,0.05,0c0.01,0,0.01,0,0.02,0c0.02,0,0.03,0,0.05,0c0.01,0,0.01,0,0.02,0c0.02,0,0.03,0,0.05,0c0.01,0,0.01,0,0.02,0
		c0.02,0,0.03,0,0.05,0c0.01,0,0.01,0,0.02,0c0.01,0,0.02,0,0.03,0l-0.07-3c-1.35,0.03-2.72,0.05-4.07,0.05
		C743.43,489,740.84,488.94,738.28,488.82L738.28,488.82z M773.51,486.7c-3.85,0.65-7.78,1.17-11.68,1.55l0.29,2.99
		c0.58-0.06,1.16-0.11,1.73-0.18l0.01,0c0.04,0,0.09-0.01,0.13-0.01l0,0c0.01,0,0.03,0,0.04,0l0.01,0c0.01,0,0.03,0,0.04,0
		c0.01,0,0.01,0,0.01,0c0.02,0,0.05-0.01,0.07-0.01c0.01,0,0.01,0,0.02,0c0.01,0,0.02,0,0.03,0c0.01,0,0.01,0,0.02,0
		c0.01,0,0.02,0,0.03,0c0.01,0,0.02,0,0.03,0c0.01,0,0.02,0,0.03,0c0.02,0,0.03,0,0.04,0c0.01,0,0.01,0,0.02,0c0.01,0,0.03,0,0.04,0
		c0.01,0,0.01,0,0.02,0c0.01,0,0.03,0,0.04,0c0.01,0,0.01,0,0.02,0c0.02,0,0.03,0,0.05-0.01c0,0,0.01,0,0.01,0c0.01,0,0.03,0,0.04,0
		c0,0,0.01,0,0.01,0c0.04,0,0.07-0.01,0.12-0.01c0,0,0.01,0,0.01,0c0.02,0,0.03,0,0.05-0.01c0,0,0.01,0,0.01,0
		c0.06-0.01,0.12-0.01,0.18-0.02c0,0,0,0,0,0c2.18-0.25,4.35-0.54,6.5-0.87c0,0,0,0,0,0c0.04-0.01,0.08-0.01,0.12-0.02l0,0
		c0.02,0,0.04-0.01,0.06-0.01c0,0,0.01,0,0.01,0c0.04-0.01,0.08-0.01,0.12-0.02c0,0,0,0,0,0c0.02,0,0.04-0.01,0.06-0.01c0,0,0,0,0,0
		c0.04-0.01,0.08-0.01,0.12-0.02c0,0,0,0,0.01,0c0.02,0,0.03,0,0.05-0.01c0,0,0.01,0,0.01,0c0.04-0.01,0.07-0.01,0.11-0.02
		c0,0,0.01,0,0.01,0c0.02,0,0.03,0,0.05-0.01c0,0,0.01,0,0.01,0c0.02,0,0.04-0.01,0.06-0.01c0,0,0,0,0,0c0.02,0,0.04-0.01,0.06-0.01
		c0,0,0.01,0,0.01,0c0.02,0,0.03-0.01,0.05-0.01c0,0,0.01,0,0.01,0c0.04-0.01,0.07-0.01,0.11-0.02c0,0,0.01,0,0.01,0
		c0.02,0,0.03,0,0.05-0.01c0,0,0.01,0,0.01,0c0.02,0,0.03-0.01,0.05-0.01c0,0,0.01,0,0.01,0c0.02,0,0.03-0.01,0.05-0.01
		c0.01,0,0.01,0,0.02,0c0.01,0,0.03,0,0.04-0.01c0.01,0,0.01,0,0.02,0c0.01,0,0.03-0.01,0.04-0.01c0,0,0.01,0,0.01,0
		c0.02,0,0.03-0.01,0.05-0.01c0.01,0,0.01,0,0.02,0c0.01,0,0.03,0,0.04-0.01c0.01,0,0.01,0,0.02,0c0.01,0,0.03,0,0.04-0.01
		c0.01,0,0.02,0,0.03,0c0.01,0,0.03,0,0.04-0.01c0.01,0,0.02,0,0.03,0c0.01,0,0.02,0,0.03,0c0.01,0,0.02,0,0.03,0
		c0.01,0,0.02,0,0.03,0c0.01,0,0.03,0,0.04-0.01c0.01,0,0.02,0,0.03-0.01c0.01,0,0.02,0,0.02,0c0.01,0,0.02,0,0.03,0
		c0.01,0,0.02,0,0.03,0c0.01,0,0.02,0,0.03,0c0.02,0,0.03-0.01,0.05-0.01c0.01,0,0.02,0,0.02,0c0.01,0,0.02,0,0.03-0.01
		c0.01,0,0.01,0,0.02,0c0.01,0,0.02,0,0.03-0.01c0.01,0,0.02,0,0.02,0c0.02,0,0.04-0.01,0.06-0.01c0.01,0,0.01,0,0.01,0
		c0.01,0,0.02,0,0.04-0.01c0.01,0,0.01,0,0.02,0c0.01,0,0.02,0,0.04-0.01c0.01,0,0.01,0,0.01,0c0.02,0,0.05-0.01,0.07-0.01
		c0.01,0,0.01,0,0.01,0c0.01,0,0.02,0,0.03-0.01c0.01,0,0.01,0,0.02,0c0.01,0,0.02,0,0.03-0.01c0.01,0,0.01,0,0.01,0
		c0.02,0,0.05-0.01,0.07-0.01l0.01,0L773.51,486.7L773.51,486.7z M796.37,481.09c-3.72,1.21-7.53,2.29-11.33,3.22l0.71,2.91
		c0.05-0.01,0.1-0.03,0.15-0.04c0,0,0,0,0,0c0.02,0,0.03-0.01,0.05-0.01c0,0,0.01,0,0.01,0c0.04-0.01,0.07-0.02,0.11-0.03
		c0.01,0,0.01,0,0.02,0c0.01,0,0.03-0.01,0.04-0.01c0.01,0,0.01,0,0.02-0.01c0.01,0,0.02-0.01,0.03-0.01c0.02,0,0.03-0.01,0.05-0.01
		c0.01,0,0.02,0,0.02-0.01c0.01,0,0.02-0.01,0.03-0.01c0.01,0,0.01,0,0.02-0.01c0.01,0,0.02-0.01,0.03-0.01c0.01,0,0.01,0,0.01,0
		c0.04-0.01,0.08-0.02,0.13-0.03l0,0c2.71-0.68,5.39-1.42,8.04-2.23c0,0,0.01,0,0.01,0c0.01,0,0.02-0.01,0.04-0.01
		c0,0,0.01,0,0.01,0c0.04-0.01,0.07-0.02,0.11-0.03c0,0,0.02-0.01,0.02-0.01c0.01,0,0.02-0.01,0.03-0.01c0.01,0,0.02-0.01,0.03-0.01
		c0.01,0,0.01,0,0.02-0.01c0.02-0.01,0.03-0.01,0.05-0.02c0,0,0.01,0,0.01,0c0.01,0,0.03-0.01,0.04-0.01c0.01,0,0.01,0,0.02-0.01
		c0.01,0,0.03-0.01,0.04-0.01c0,0,0.01,0,0.01,0c0.78-0.24,1.55-0.48,2.33-0.74L796.37,481.09L796.37,481.09z M818.16,472.19
		c-3.5,1.74-7.11,3.37-10.73,4.85l1.13,2.78c3.72-1.52,7.37-3.17,10.93-4.94L818.16,472.19L818.16,472.19z M838.39,460.17
		c-3.2,2.24-6.52,4.39-9.89,6.39l1.53,2.58c0,0,0,0,0.01,0c0.02-0.01,0.04-0.03,0.07-0.04c0,0,0.01,0,0.01-0.01
		c0.02-0.01,0.05-0.03,0.07-0.04l0.01-0.01c0.05-0.03,0.1-0.06,0.15-0.09l0,0c1.96-1.17,3.9-2.39,5.8-3.64l0,0
		c0.05-0.03,0.1-0.07,0.15-0.1l0.01,0c0.02-0.02,0.05-0.03,0.07-0.05c0,0,0.01,0,0.01-0.01c0.05-0.03,0.1-0.06,0.14-0.09
		c0.01-0.01,0.01,0,0.01-0.01c0.02-0.02,0.05-0.03,0.07-0.05c0,0,0.01,0,0.01-0.01c0.02-0.01,0.04-0.03,0.06-0.04
		c0,0,0.02-0.01,0.02-0.01c0.02-0.01,0.04-0.03,0.06-0.04c0.01-0.01,0.01-0.01,0.02-0.01c0.02-0.01,0.03-0.02,0.05-0.03
		c0.01-0.01,0.01-0.01,0.02-0.01c0.02-0.01,0.04-0.03,0.06-0.04c0.01-0.01,0.02-0.01,0.03-0.02c0.01-0.01,0.03-0.02,0.04-0.03
		c0.02-0.01,0.03-0.02,0.05-0.03c0.01-0.01,0.02-0.01,0.03-0.02c0.01-0.01,0.02-0.02,0.04-0.02c0.01-0.01,0.02-0.01,0.03-0.02
		c0.02-0.01,0.04-0.03,0.06-0.04c0.01-0.01,0.01-0.01,0.02-0.02c0.02-0.02,0.05-0.04,0.08-0.05c0,0,0.01,0,0.01,0
		c0.02-0.01,0.03-0.02,0.05-0.03c0,0,0.01,0,0.01-0.01c0.03-0.02,0.06-0.04,0.09-0.06c0,0,0,0,0,0c0.89-0.6,1.77-1.2,2.65-1.82
		L838.39,460.17L838.39,460.17z M856.57,445.25c-2.82,2.7-5.78,5.32-8.81,7.8l1.9,2.32c0.17-0.14,0.34-0.28,0.51-0.42l0,0
		c0.02-0.02,0.05-0.04,0.07-0.06c0,0,0,0,0.01-0.01c0.02-0.02,0.04-0.04,0.06-0.05c0,0,0,0,0,0c0.02-0.02,0.04-0.04,0.06-0.05
		c0.01-0.01,0.01,0,0.01-0.01c0.02-0.02,0.04-0.03,0.06-0.05c0,0,0.01-0.01,0.01-0.01c0.02-0.01,0.04-0.03,0.05-0.04
		c0.01-0.01,0.01-0.01,0.02-0.02c0.02-0.02,0.04-0.03,0.06-0.05c0,0,0.02-0.01,0.02-0.02c0.02-0.01,0.03-0.03,0.05-0.04
		c0,0,0.02-0.01,0.02-0.02c0.02-0.01,0.03-0.03,0.05-0.04c0.01-0.01,0.02-0.01,0.02-0.02c0.02-0.01,0.03-0.03,0.05-0.04
		c0.01-0.01,0.02-0.02,0.03-0.02c0.01-0.01,0.02-0.02,0.04-0.03c0.01-0.01,0.02-0.01,0.03-0.02c0.02-0.01,0.03-0.03,0.05-0.04
		c0.01-0.01,0.02-0.02,0.03-0.02c0.01-0.01,0.02-0.02,0.03-0.03c0.01-0.01,0.03-0.03,0.05-0.04c0.01-0.01,0.02-0.02,0.03-0.02
		c0.01-0.01,0.02-0.02,0.03-0.03c0.01-0.01,0.02-0.02,0.03-0.03c0.01-0.01,0.03-0.03,0.05-0.04c0.01-0.01,0.02-0.01,0.02-0.02
		c0.02-0.02,0.04-0.03,0.06-0.05c0.01-0.01,0.02-0.01,0.02-0.02c0.01-0.01,0.02-0.02,0.04-0.03c0.01-0.01,0.01-0.01,0.02-0.02
		c0.02-0.02,0.04-0.04,0.07-0.06c0.01,0,0.01-0.01,0.02-0.01c0.01-0.01,0.02-0.02,0.04-0.03c0,0,0.01-0.01,0.01-0.01
		c0.02-0.02,0.05-0.04,0.07-0.06c0,0,0.01-0.01,0.01-0.01c0.04-0.03,0.09-0.07,0.13-0.11c0,0,0,0,0,0c0.03-0.03,0.05-0.05,0.08-0.07
		c0,0,0,0,0,0c0.04-0.04,0.09-0.07,0.13-0.11c0,0,0,0,0,0c0.07-0.06,0.15-0.12,0.22-0.19c0,0,0,0,0,0c0.16-0.14,0.32-0.28,0.49-0.42
		c0,0,0,0,0,0c0.07-0.06,0.14-0.12,0.22-0.19c0,0,0,0,0,0c0.04-0.04,0.09-0.07,0.13-0.11c0,0,0,0,0,0c0.07-0.06,0.14-0.12,0.22-0.19
		c0,0,0,0,0.01,0c0.04-0.04,0.08-0.07,0.13-0.11c0,0,0,0,0.01-0.01c0.03-0.03,0.05-0.04,0.08-0.07c0,0,0.01,0,0.01-0.01
		c0.04-0.04,0.08-0.07,0.12-0.11c0,0,0.01-0.01,0.01-0.01c0.04-0.04,0.08-0.07,0.12-0.11c0,0,0,0,0.01,0
		c0.03-0.02,0.05-0.05,0.08-0.07c0,0,0.01-0.01,0.01-0.01c0.04-0.04,0.08-0.07,0.12-0.11c0,0,0.01-0.01,0.01-0.01
		c0.02-0.02,0.05-0.05,0.07-0.07c0,0,0.01,0,0.01-0.01c0.01-0.01,0.02-0.02,0.04-0.03c0,0,0.01-0.01,0.01-0.01
		c0.02-0.02,0.04-0.04,0.07-0.06c0.01-0.01,0.01-0.01,0.02-0.02c0.04-0.03,0.08-0.07,0.12-0.1c0.01-0.01,0.01-0.01,0.02-0.02
		c0.02-0.02,0.04-0.03,0.05-0.05c0.01-0.01,0.02-0.01,0.02-0.02c0.01-0.01,0.02-0.02,0.03-0.03c0.01-0.01,0.02-0.02,0.03-0.02
		c0.02-0.02,0.03-0.03,0.05-0.04c0.01-0.01,0.02-0.02,0.03-0.02c0.01-0.01,0.02-0.02,0.03-0.03c0.02-0.01,0.03-0.03,0.05-0.04
		c0.01-0.01,0.02-0.02,0.03-0.03c0.01-0.01,0.02-0.02,0.03-0.03c0.01-0.01,0.02-0.02,0.04-0.03c0.01-0.01,0.03-0.02,0.04-0.03
		c0.01-0.01,0.02-0.02,0.03-0.02c0.02-0.01,0.03-0.03,0.05-0.04c0.01-0.01,0.02-0.02,0.03-0.02c0.01-0.01,0.02-0.02,0.04-0.03
		c0.01-0.01,0.02-0.01,0.02-0.02c0.02-0.02,0.03-0.03,0.05-0.05c0.01-0.01,0.02-0.01,0.02-0.02c0.02-0.01,0.03-0.03,0.05-0.04
		c0.01-0.01,0.01-0.01,0.02-0.01c0.02-0.02,0.03-0.03,0.05-0.05c0.01-0.01,0.01-0.01,0.02-0.02c0.02-0.02,0.04-0.03,0.06-0.05
		c0.01-0.01,0.01-0.01,0.02-0.01c0.02-0.01,0.03-0.03,0.05-0.04c0.01-0.01,0.01-0.01,0.01-0.01c0.02-0.02,0.04-0.03,0.06-0.05
		c0,0,0.01-0.01,0.02-0.01c0.02-0.02,0.04-0.04,0.06-0.05l0,0c0.02-0.02,0.04-0.04,0.06-0.05c0,0,0.01-0.01,0.01-0.01
		c0.02-0.02,0.04-0.04,0.06-0.06l0.01-0.01c0.02-0.02,0.04-0.04,0.06-0.06l0,0c0.02-0.02,0.04-0.04,0.07-0.06l0.01,0
		c0.05-0.04,0.09-0.08,0.14-0.12l0,0c0.97-0.88,1.93-1.78,2.87-2.68L856.57,445.25L856.57,445.25z M872.26,427.74
		c-2.37,3.1-4.89,6.15-7.5,9.06l2.23,2c0.33-0.37,0.66-0.75,0.99-1.12l0,0c0.04-0.05,0.08-0.09,0.12-0.14l0,0
		c0.02-0.02,0.04-0.04,0.06-0.06c0,0,0.01-0.01,0.01-0.01c0.04-0.04,0.07-0.08,0.11-0.13c0,0,0.01-0.01,0.01-0.02
		c0.02-0.02,0.03-0.04,0.05-0.06c0.01-0.01,0.01-0.01,0.01-0.02c0.01-0.02,0.03-0.03,0.04-0.05c0.01-0.01,0.01-0.01,0.01-0.02
		c0.02-0.02,0.03-0.04,0.05-0.05c0.01-0.01,0.01-0.02,0.02-0.02c0.02-0.02,0.03-0.03,0.05-0.05c0.01-0.01,0.01-0.01,0.02-0.02
		c0.01-0.01,0.02-0.03,0.04-0.04c0.01-0.01,0.01-0.01,0.02-0.02c0.02-0.02,0.03-0.03,0.05-0.05c0.01-0.01,0.01-0.01,0.02-0.03
		c0.01-0.01,0.02-0.02,0.03-0.04c0.01-0.01,0.02-0.02,0.03-0.04c0.01-0.01,0.02-0.02,0.03-0.04c0.01-0.01,0.02-0.02,0.03-0.03
		c0.01-0.01,0.02-0.02,0.03-0.03c0.01-0.01,0.03-0.03,0.04-0.05c0.01-0.01,0.01-0.02,0.02-0.02c0.02-0.02,0.04-0.04,0.05-0.06
		c0-0.01,0.01-0.01,0.01-0.01c0.01-0.01,0.02-0.02,0.03-0.04c0-0.01,0.01-0.01,0.01-0.02c0.02-0.02,0.04-0.05,0.06-0.07
		c0,0,0.01-0.01,0.01-0.01c0.04-0.04,0.07-0.08,0.11-0.12c0,0,0.01-0.01,0.01-0.01c0.04-0.04,0.07-0.08,0.11-0.13c0,0,0,0,0,0
		c0.03-0.03,0.05-0.05,0.07-0.08c0,0,0,0,0,0c1.82-2.13,3.57-4.3,5.27-6.52L872.26,427.74L872.26,427.74z M884.99,407.99
		c-1.84,3.43-3.85,6.84-5.97,10.13l2.52,1.63c1.08-1.68,2.13-3.38,3.15-5.1c0,0,0-0.01,0.01-0.01c0.01-0.01,0.01-0.02,0.02-0.03
		c0,0,0,0,0-0.01c0.02-0.04,0.04-0.08,0.07-0.11l0,0c0.01-0.01,0.01-0.02,0.02-0.03c0,0,0.01-0.01,0.01-0.01
		c0.01-0.01,0.01-0.02,0.02-0.03c0,0,0.01-0.01,0.01-0.02c0.01-0.01,0.01-0.02,0.02-0.03c0,0,0.01-0.01,0.01-0.01
		c0.01-0.02,0.02-0.03,0.03-0.05c0-0.01,0.01-0.01,0.01-0.02c0-0.01,0.01-0.01,0.01-0.02c0-0.01,0.01-0.02,0.01-0.02
		c0-0.01,0.01-0.01,0.01-0.02c0-0.01,0.01-0.02,0.01-0.02c0-0.01,0.01-0.01,0.01-0.02c0-0.01,0.01-0.02,0.02-0.03
		c0-0.01,0.01-0.01,0.01-0.02c0.01-0.02,0.02-0.03,0.03-0.04c0,0,0-0.01,0.01-0.01c0.01-0.01,0.01-0.02,0.02-0.03
		c0,0,0.01-0.01,0.01-0.01c0-0.01,0.01-0.03,0.02-0.03c0,0,0.01-0.01,0.01-0.01c0.01-0.01,0.01-0.02,0.02-0.04c0,0,0-0.01,0.01-0.01
		c0.02-0.03,0.04-0.06,0.06-0.1c0,0,0-0.01,0-0.01c0.01-0.02,0.01-0.02,0.02-0.04c0,0,0,0,0-0.01c0.01-0.02,0.02-0.03,0.03-0.05
		c0,0,0,0,0,0c0.02-0.03,0.04-0.07,0.06-0.1l0,0c0.01-0.02,0.02-0.03,0.03-0.05c0,0,0,0,0,0c0.8-1.37,1.57-2.76,2.32-4.16
		L884.99,407.99L884.99,407.99z M894.38,386.47c-1.26,3.69-2.69,7.37-4.25,10.95l2.75,1.2c0.08-0.19,0.16-0.37,0.24-0.56l0,0
		c0.03-0.07,0.06-0.14,0.09-0.21l0,0c0.02-0.06,0.05-0.11,0.07-0.17l0,0c0.01-0.01,0.01-0.03,0.02-0.04l0-0.01
		c0-0.01,0.01-0.02,0.01-0.03c0,0,0-0.01,0-0.01c0.02-0.04,0.03-0.08,0.05-0.11c0,0,0,0,0-0.01c0-0.01,0.01-0.02,0.01-0.03
		c0-0.01,0-0.01,0.01-0.02c0-0.01,0.01-0.02,0.01-0.03c0,0,0-0.01,0.01-0.01c0-0.01,0.01-0.02,0.01-0.03l0-0.01
		c0.01-0.02,0.02-0.04,0.02-0.06c0-0.01,0.01-0.02,0.01-0.03c0-0.01,0.01-0.02,0.01-0.02c0-0.01,0.01-0.02,0.01-0.03
		c0-0.01,0.01-0.02,0.01-0.02c0-0.01,0.01-0.02,0.01-0.02c0-0.01,0.01-0.02,0.01-0.02c0-0.01,0.01-0.02,0.01-0.03
		c0-0.01,0.01-0.02,0.01-0.03c0-0.01,0.01-0.02,0.01-0.03c0-0.01,0.01-0.02,0.01-0.02c0-0.01,0.01-0.02,0.01-0.03
		c0-0.01,0.01-0.02,0.01-0.02c0-0.01,0.01-0.02,0.01-0.03c0-0.01,0.01-0.02,0.01-0.02c0.01-0.01,0.01-0.02,0.02-0.04
		c0-0.01,0.01-0.01,0.01-0.02c0.01-0.01,0.01-0.03,0.02-0.04c0-0.01,0.01-0.01,0.01-0.02c0-0.01,0.01-0.02,0.01-0.03
		c0-0.01,0.01-0.01,0.01-0.02c0-0.01,0.01-0.02,0.01-0.03c0-0.01,0.01-0.01,0.01-0.02c0.02-0.04,0.03-0.06,0.04-0.1
		c0,0,0-0.01,0-0.01c0.01-0.02,0.01-0.02,0.02-0.04c0,0,0-0.01,0.01-0.01c0-0.01,0.01-0.03,0.02-0.04c0,0,0-0.01,0.01-0.02
		c0.01-0.02,0.01-0.03,0.02-0.04c0,0,0,0,0,0c0.01-0.02,0.01-0.03,0.02-0.05c0,0,0,0,0-0.01c0.01-0.02,0.01-0.03,0.02-0.04
		c0,0,0-0.01,0.01-0.01c0-0.01,0.01-0.03,0.02-0.04c0,0,0-0.01,0-0.01c0.01-0.04,0.03-0.07,0.04-0.1c0,0,0,0,0-0.01
		c0.01-0.02,0.01-0.03,0.02-0.05c0,0,0-0.01,0-0.01c0.01-0.01,0.01-0.03,0.02-0.04c0,0,0-0.01,0-0.01c0.02-0.05,0.04-0.1,0.06-0.16
		c0,0,0,0,0,0c0.01-0.02,0.01-0.03,0.02-0.05c0,0,0,0,0,0c0.03-0.07,0.06-0.14,0.09-0.21c0,0,0,0,0,0c0.03-0.07,0.06-0.14,0.09-0.21
		c0,0,0,0,0,0c1.07-2.62,2.07-5.28,2.99-7.97L894.38,386.47L894.38,386.47z M900.11,363.7c-0.63,3.85-1.44,7.72-2.39,11.5l2.91,0.73
		c0.7-2.77,1.31-5.58,1.85-8.41l0-0.01c0-0.01,0.01-0.03,0.01-0.04l0,0c0.01-0.04,0.02-0.08,0.02-0.12c0,0,0-0.01,0-0.02
		c0-0.01,0-0.02,0.01-0.03c0-0.01,0-0.01,0-0.02c0-0.01,0-0.02,0.01-0.03c0-0.01,0-0.02,0.01-0.03c0-0.01,0-0.02,0.01-0.03
		c0-0.01,0-0.03,0.01-0.04c0-0.01,0-0.01,0-0.02c0-0.01,0.01-0.03,0.01-0.04c0-0.01,0-0.01,0-0.02c0-0.01,0.01-0.03,0.01-0.04
		c0,0,0-0.01,0-0.01c0.01-0.04,0.01-0.07,0.02-0.11c0,0,0,0,0,0c0-0.02,0.01-0.03,0.01-0.05c0,0,0,0,0-0.01
		c0.16-0.88,0.32-1.77,0.46-2.66L900.11,363.7L900.11,363.7z M905,340.29l-3,0l0,0.21c0,3.84-0.16,7.72-0.46,11.54l2.99,0.24
		c0.24-2.92,0.39-5.87,0.44-8.84c0,0,0,0,0,0c0-0.04,0-0.08,0-0.12v0c0-0.02,0-0.04,0-0.06c0,0,0,0,0,0c0-0.06,0-0.12,0-0.18
		c0,0,0,0,0,0c0-0.04,0-0.08,0-0.12c0,0,0,0,0,0c0-0.02,0-0.03,0-0.05c0,0,0-0.01,0-0.01c0-0.04,0-0.08,0-0.12c0,0,0,0,0,0
		c0-0.02,0-0.04,0-0.06c0,0,0-0.01,0-0.01c0-0.02,0-0.03,0-0.05c0,0,0,0,0,0c0-0.02,0-0.04,0-0.06c0,0,0,0,0-0.01
		c0-0.02,0-0.03,0-0.05c0,0,0-0.01,0-0.01c0-0.02,0-0.03,0-0.05c0,0,0-0.01,0-0.01c0-0.02,0-0.04,0-0.06c0,0,0,0,0,0
		c0-0.02,0-0.03,0-0.05c0,0,0-0.01,0-0.01c0-0.02,0-0.03,0-0.05c0,0,0,0,0-0.01c0-0.04,0-0.08,0-0.12c0,0,0-0.01,0-0.01
		c0-0.02,0-0.03,0-0.05c0,0,0-0.01,0-0.01c0-0.04,0-0.07,0-0.12c0,0,0-0.01,0-0.01c0-0.02,0-0.03,0-0.05c0,0,0-0.01,0-0.01
		c0-0.04,0-0.07,0-0.11c0,0,0-0.01,0-0.01c0-0.02,0-0.03,0-0.05c0,0,0-0.01,0-0.01c0-0.02,0-0.03,0-0.05c0,0,0,0,0,0
		c0-0.02,0-0.04,0-0.06c0,0,0-0.01,0-0.01c0-0.01,0-0.04,0-0.05c0,0,0-0.01,0-0.01c0-0.02,0-0.03,0-0.05c0,0,0-0.01,0-0.01
		c0-0.02,0-0.04,0-0.06c0,0,0-0.01,0-0.01c0-0.01,0-0.03,0-0.04c0-0.01,0-0.01,0-0.02c0-0.02,0-0.03,0-0.05c0,0,0,0,0-0.01
		c0-0.02,0-0.04,0-0.06c0,0,0-0.01,0-0.01c0-0.02,0-0.03,0-0.05c0,0,0-0.01,0-0.01c0-0.02,0-0.03,0-0.05c0,0,0-0.01,0-0.01
		c0-0.02,0-0.04,0-0.06c0,0,0-0.01,0-0.01c0-0.01,0-0.03,0-0.04c0-0.01,0-0.01,0-0.02c0-0.01,0-0.03,0-0.04c0-0.01,0-0.01,0-0.02
		c0-0.02,0-0.03,0-0.06c0,0,0,0,0-0.01c0-0.02,0-0.03,0-0.05c0-0.01,0-0.01,0-0.02c0-0.01,0-0.03,0-0.04c0-0.01,0-0.01,0-0.02
		c0-0.02,0-0.03,0-0.06c0,0,0,0,0,0c0-0.02,0-0.03,0-0.05c0-0.01,0-0.01,0-0.02c0-0.01,0-0.03,0-0.04c0-0.01,0-0.01,0-0.02
		c0-0.02,0-0.04,0-0.06l0,0c0-0.02,0-0.04,0-0.06c0-0.01,0-0.01,0-0.02c0-0.01,0-0.03,0-0.04c0-0.01,0-0.01,0-0.02
		c0-0.01,0-0.03,0-0.04c0-0.01,0-0.02,0-0.02C905,340.3,905,340.3,905,340.29L905,340.29z M903,316.4l-2.96,0.5
		c0.64,3.84,1.14,7.77,1.46,11.66l2.99-0.25c-0.17-1.98-0.37-3.94-0.61-5.89l0,0c0-0.01,0-0.03-0.01-0.04l0-0.01
		c0-0.01,0-0.03,0-0.04c0,0,0-0.01,0-0.01c-0.01-0.04-0.01-0.08-0.02-0.12c0,0,0-0.01,0-0.01c0-0.01,0-0.03,0-0.04
		c0,0,0-0.01,0-0.01c0-0.01,0-0.02,0-0.04l0,0c0-0.02-0.01-0.05-0.01-0.08c0,0,0-0.01,0-0.02c0-0.01,0-0.02,0-0.03
		c0-0.01,0-0.01,0-0.02c0-0.01,0-0.02,0-0.03c0,0,0-0.02,0-0.02c0-0.01,0-0.02,0-0.03c0-0.02,0-0.03-0.01-0.05c0-0.01,0-0.02,0-0.02
		c0-0.01,0-0.02,0-0.03c0-0.01,0-0.02,0-0.02c0-0.01,0-0.02,0-0.03c0-0.01,0-0.02,0-0.02c0-0.01,0-0.03-0.01-0.04c0,0,0-0.01,0-0.01
		c0-0.02,0-0.03-0.01-0.05c0-0.01,0-0.01,0-0.02c0-0.01,0-0.03,0-0.04c0-0.01,0-0.01,0-0.02c0-0.01,0-0.03-0.01-0.04
		c0,0,0-0.01,0-0.01c0-0.02,0-0.04-0.01-0.06c0,0,0,0,0,0c0-0.02,0-0.03-0.01-0.05c0-0.01,0-0.01,0-0.02c0-0.01,0-0.03-0.01-0.04
		c0,0,0-0.01,0-0.01c-0.01-0.04-0.01-0.07-0.02-0.11c0,0,0,0,0,0c0-0.02,0-0.03-0.01-0.05c0,0,0-0.01,0-0.01
		c0-0.02,0-0.03-0.01-0.05c0,0,0,0,0,0C903.49,319.48,903.26,317.93,903,316.4L903,316.4z M897.09,293.17l-2.84,0.98
		c1.27,3.69,2.41,7.48,3.37,11.25l2.91-0.74c-0.01-0.05-0.03-0.1-0.04-0.15c0,0,0,0,0,0c0-0.02-0.01-0.03-0.01-0.05
		c0,0,0-0.01,0-0.01c0-0.01-0.01-0.03-0.01-0.04c0,0,0-0.01,0-0.01c0-0.02-0.01-0.03-0.01-0.05c0,0,0,0,0-0.01
		c0-0.02-0.01-0.03-0.01-0.05c0-0.01,0-0.01,0-0.02c0-0.01-0.01-0.02-0.01-0.03c0-0.01,0-0.02-0.01-0.03c0-0.01,0-0.02-0.01-0.03
		c0-0.01,0-0.02-0.01-0.03c0,0,0-0.02-0.01-0.02c-0.01-0.02-0.01-0.04-0.02-0.06l0-0.01c0-0.01-0.01-0.02-0.01-0.03
		c0,0,0-0.01,0-0.01c0-0.01-0.01-0.02-0.01-0.04c0,0,0-0.01,0-0.01c0-0.01-0.01-0.03-0.01-0.04l0,0
		C899.39,300.29,898.3,296.7,897.09,293.17L897.09,293.17z M887.44,271.22l-2.64,1.43c1.86,3.44,3.6,6.99,5.17,10.56l2.75-1.21
		C891.1,278.33,889.34,274.73,887.44,271.22L887.44,271.22z M874.39,251.11l-2.38,1.83c2.38,3.1,4.67,6.33,6.79,9.6l2.52-1.63
		c-0.03-0.05-0.07-0.1-0.1-0.16l0,0c-0.03-0.05-0.07-0.1-0.1-0.15l0,0c-0.02-0.02-0.03-0.05-0.05-0.07c0,0,0,0-0.01-0.01
		c-0.03-0.05-0.06-0.1-0.09-0.14c0,0-0.01-0.01-0.01-0.01c-0.01-0.02-0.03-0.04-0.04-0.07c-0.01-0.01-0.01-0.01-0.01-0.02
		c-0.01-0.02-0.02-0.04-0.04-0.05c0,0-0.01-0.01-0.01-0.02c-0.01-0.02-0.03-0.04-0.04-0.06c-0.01-0.01-0.01-0.02-0.02-0.02
		c-0.01-0.02-0.02-0.04-0.04-0.06c-0.01-0.01-0.01-0.02-0.02-0.03c-0.01-0.01-0.02-0.03-0.03-0.04c-0.01-0.01-0.01-0.02-0.02-0.03
		c-0.01-0.02-0.02-0.04-0.04-0.05c-0.01-0.01-0.01-0.02-0.02-0.03c-0.01-0.01-0.01-0.02-0.02-0.03c-0.01-0.02-0.03-0.04-0.04-0.06
		c-0.01-0.01-0.01-0.02-0.02-0.03c-0.01-0.01-0.02-0.03-0.03-0.04c0-0.01-0.01-0.01-0.01-0.02c-0.02-0.02-0.03-0.05-0.05-0.07
		c0-0.01-0.01-0.01-0.01-0.02c-0.03-0.04-0.06-0.09-0.09-0.13c0,0,0,0,0,0c-0.02-0.03-0.04-0.06-0.06-0.09c0,0,0,0,0,0
		c-0.03-0.05-0.06-0.1-0.1-0.14c0,0,0,0,0,0c-1.29-1.92-2.61-3.82-3.99-5.68c0,0,0,0-0.01-0.01c-0.03-0.05-0.06-0.09-0.1-0.13
		c0,0-0.01-0.01-0.01-0.01c-0.02-0.02-0.03-0.05-0.05-0.07c0-0.01-0.01-0.01-0.01-0.02c-0.01-0.01-0.02-0.03-0.03-0.04
		c-0.01-0.01-0.02-0.02-0.02-0.03c-0.01-0.02-0.02-0.03-0.04-0.05c-0.01-0.01-0.02-0.02-0.02-0.03c-0.01-0.01-0.02-0.03-0.03-0.04
		c-0.01-0.02-0.02-0.03-0.03-0.05c-0.01-0.01-0.01-0.02-0.02-0.03c-0.01-0.02-0.03-0.04-0.04-0.06c0,0-0.01-0.01-0.01-0.02
		c-0.01-0.02-0.02-0.03-0.04-0.05c0,0-0.01-0.02-0.02-0.02c-0.02-0.02-0.03-0.04-0.05-0.06c0,0-0.01-0.01-0.01-0.01
		c-0.02-0.02-0.03-0.04-0.05-0.07l0,0c-0.02-0.02-0.03-0.05-0.05-0.07c0,0,0-0.01-0.01-0.01
		C875.18,252.15,874.79,251.63,874.39,251.11L874.39,251.11z M858.34,233.29l-2.07,2.17c2.84,2.7,5.6,5.54,8.21,8.43l2.23-2.01
		c-1.67-1.85-3.39-3.67-5.15-5.45l0,0c-0.07-0.07-0.13-0.13-0.2-0.2l0,0c-0.04-0.04-0.09-0.09-0.13-0.13l0,0
		c-0.02-0.02-0.04-0.04-0.06-0.06l0,0c-0.04-0.04-0.08-0.08-0.13-0.13c0,0-0.01-0.01-0.01-0.01c-0.02-0.02-0.04-0.04-0.06-0.06
		c0,0,0,0,0,0c-0.02-0.02-0.04-0.04-0.06-0.06c0,0-0.01-0.01-0.01-0.01c-0.02-0.02-0.04-0.04-0.06-0.06c0,0-0.01-0.01-0.01-0.01
		c-0.02-0.02-0.04-0.03-0.05-0.05c0,0,0,0-0.01-0.01c-0.02-0.02-0.04-0.04-0.05-0.05c-0.01-0.01-0.01-0.01-0.02-0.02
		c-0.02-0.02-0.03-0.03-0.05-0.05c-0.01-0.01-0.01-0.01-0.02-0.02c-0.01-0.01-0.03-0.03-0.04-0.04c-0.01-0.01-0.01-0.01-0.02-0.02
		c-0.02-0.02-0.03-0.03-0.05-0.05c-0.01-0.01-0.02-0.02-0.03-0.03c-0.01-0.01-0.02-0.02-0.04-0.04c-0.01-0.01-0.02-0.02-0.03-0.03
		c-0.01-0.01-0.02-0.02-0.03-0.03c-0.01-0.01-0.02-0.02-0.03-0.03c-0.01-0.01-0.03-0.03-0.04-0.04c-0.01-0.01-0.02-0.02-0.03-0.03
		c-0.01-0.01-0.02-0.02-0.02-0.02c-0.02-0.02-0.03-0.03-0.05-0.05c-0.01-0.01-0.01-0.01-0.02-0.02c-0.01-0.01-0.02-0.02-0.04-0.03
		c0,0-0.01-0.01-0.01-0.01c-0.02-0.02-0.04-0.04-0.06-0.06c0,0-0.01-0.01-0.01-0.01c-0.04-0.04-0.08-0.08-0.12-0.12c0,0,0,0,0,0
		C859.41,234.31,858.88,233.8,858.34,233.29L858.34,233.29z M839.77,218.13l-1.72,2.46c3.21,2.24,6.37,4.62,9.4,7.09l1.9-2.32
		c-0.02-0.02-0.05-0.04-0.07-0.06l0,0c-0.05-0.04-0.09-0.08-0.14-0.11l-0.01-0.01c-0.02-0.02-0.05-0.04-0.07-0.05c0,0,0,0,0,0
		c-0.02-0.02-0.04-0.03-0.06-0.05c0,0-0.01,0-0.01-0.01c-0.02-0.02-0.04-0.03-0.06-0.05c0,0-0.01-0.01-0.01-0.01
		c-0.02-0.02-0.04-0.03-0.06-0.05c0,0-0.01,0-0.01-0.01c-0.02-0.02-0.04-0.03-0.06-0.05c-0.01-0.01-0.01-0.01-0.02-0.01
		c-0.02-0.02-0.04-0.03-0.06-0.05c0,0-0.01-0.01-0.01-0.01c-0.02-0.01-0.03-0.03-0.05-0.04c0,0-0.01-0.01-0.02-0.01
		c-0.02-0.02-0.04-0.03-0.06-0.05c0,0-0.02-0.01-0.02-0.02c-0.02-0.01-0.03-0.02-0.05-0.04c-0.01-0.01-0.02-0.01-0.02-0.02
		c-0.02-0.01-0.03-0.03-0.05-0.04c-0.01-0.01-0.02-0.01-0.02-0.02c-0.02-0.01-0.03-0.03-0.05-0.04c-0.01-0.01-0.02-0.02-0.03-0.02
		c-0.01-0.01-0.03-0.02-0.04-0.03c-0.01-0.01-0.01-0.01-0.03-0.02c-0.02-0.01-0.03-0.03-0.05-0.04c-0.01-0.01-0.02-0.02-0.03-0.02
		c-0.01-0.01-0.02-0.02-0.03-0.03c-0.01-0.01-0.03-0.02-0.04-0.03c-0.01-0.01-0.03-0.02-0.04-0.03c-0.01-0.01-0.02-0.02-0.03-0.02
		c-0.01-0.01-0.03-0.02-0.04-0.03c-0.01-0.01-0.03-0.02-0.04-0.03c-0.01-0.01-0.02-0.02-0.03-0.03c-0.01-0.01-0.02-0.02-0.03-0.02
		c-0.02-0.01-0.03-0.03-0.05-0.04c-0.01-0.01-0.02-0.02-0.03-0.03c-0.01-0.01-0.02-0.02-0.03-0.02c-0.02-0.01-0.03-0.03-0.05-0.04
		c-0.01-0.01-0.02-0.02-0.03-0.02c-0.01-0.01-0.02-0.02-0.03-0.03c-0.01-0.01-0.02-0.02-0.03-0.02c-0.02-0.02-0.03-0.03-0.05-0.04
		c-0.01-0.01-0.02-0.01-0.03-0.02c-0.01-0.01-0.02-0.02-0.03-0.03c-0.02-0.01-0.03-0.03-0.05-0.04c-0.01-0.01-0.02-0.02-0.03-0.03
		c-0.01-0.01-0.02-0.01-0.03-0.02c-0.02-0.02-0.03-0.03-0.05-0.04c-0.01-0.01-0.02-0.01-0.03-0.02c-0.01-0.01-0.02-0.02-0.04-0.03
		c-0.01-0.01-0.02-0.01-0.03-0.02c-0.02-0.02-0.04-0.03-0.05-0.04c-0.01-0.01-0.02-0.01-0.03-0.02c-0.01-0.01-0.02-0.02-0.03-0.03
		c-0.02-0.01-0.03-0.03-0.05-0.04c-0.01-0.01-0.02-0.02-0.03-0.03c-0.01-0.01-0.02-0.01-0.02-0.02c-0.02-0.02-0.04-0.03-0.06-0.05
		c-0.01-0.01-0.02-0.01-0.03-0.02c-0.02-0.01-0.02-0.02-0.04-0.03c-0.01-0.01-0.02-0.01-0.03-0.02c-0.02-0.02-0.04-0.03-0.06-0.04
		c-0.01-0.01-0.02-0.01-0.03-0.02c-0.01-0.01-0.02-0.02-0.03-0.03c-0.02-0.01-0.03-0.02-0.05-0.04c-0.01-0.01-0.02-0.02-0.04-0.03
		c-0.01-0.01-0.02-0.01-0.02-0.02c-0.02-0.02-0.04-0.03-0.06-0.04c-0.01-0.01-0.02-0.01-0.03-0.02c-0.01-0.01-0.02-0.02-0.04-0.03
		c-0.01-0.01-0.02-0.01-0.03-0.02c-0.02-0.01-0.04-0.03-0.06-0.04c-0.01-0.01-0.02-0.01-0.03-0.02c-0.01-0.01-0.02-0.02-0.03-0.03
		c-0.02-0.01-0.03-0.03-0.05-0.04c-0.01-0.01-0.02-0.02-0.03-0.03c-0.01-0.01-0.02-0.01-0.03-0.02c-0.02-0.01-0.03-0.02-0.05-0.04
		c-0.01-0.01-0.02-0.02-0.03-0.02c-0.01-0.01-0.02-0.02-0.03-0.03c-0.01-0.01-0.02-0.02-0.03-0.03c-0.02-0.01-0.03-0.03-0.05-0.04
		c-0.01-0.01-0.02-0.02-0.03-0.02c-0.01-0.01-0.02-0.02-0.03-0.02c-0.02-0.01-0.03-0.03-0.05-0.04c-0.01-0.01-0.02-0.02-0.03-0.02
		c-0.01-0.01-0.02-0.02-0.03-0.03c-0.01-0.01-0.03-0.02-0.04-0.03c-0.01-0.01-0.03-0.02-0.04-0.03c-0.01-0.01-0.02-0.02-0.03-0.02
		c-0.01-0.01-0.03-0.02-0.04-0.03c-0.01-0.01-0.03-0.02-0.04-0.03c-0.01-0.01-0.03-0.02-0.04-0.03c-0.01-0.01-0.02-0.01-0.03-0.02
		c-0.02-0.01-0.04-0.03-0.05-0.04c-0.01-0.01-0.01-0.01-0.03-0.02c-0.01-0.01-0.03-0.02-0.04-0.03c-0.01-0.01-0.02-0.02-0.03-0.02
		c-0.02-0.01-0.03-0.02-0.05-0.04c-0.01-0.01-0.02-0.01-0.03-0.02c-0.02-0.01-0.03-0.03-0.05-0.04c-0.01-0.01-0.02-0.01-0.03-0.02
		c-0.01-0.01-0.03-0.02-0.04-0.03c-0.01-0.01-0.02-0.01-0.02-0.02c-0.02-0.01-0.04-0.03-0.06-0.04c-0.01-0.01-0.02-0.01-0.02-0.02
		c-0.02-0.01-0.03-0.02-0.05-0.04c-0.01-0.01-0.01-0.01-0.02-0.01c-0.02-0.01-0.04-0.03-0.06-0.05c-0.01-0.01-0.01-0.01-0.02-0.02
		c-0.02-0.02-0.04-0.03-0.06-0.05c0,0-0.01-0.01-0.01-0.01c-0.02-0.01-0.04-0.03-0.05-0.04c0,0-0.01-0.01-0.02-0.01
		c-0.02-0.02-0.04-0.03-0.06-0.05c0,0-0.01-0.01-0.02-0.01c-0.02-0.01-0.04-0.03-0.06-0.04c0,0-0.01-0.01-0.01-0.01
		c-0.02-0.02-0.04-0.03-0.06-0.05c-0.01-0.01-0.01-0.01-0.02-0.01c-0.02-0.02-0.04-0.03-0.06-0.05c0,0,0,0-0.01-0.01
		c-0.02-0.02-0.04-0.03-0.06-0.05c0,0-0.01-0.01-0.01-0.01c-0.02-0.02-0.04-0.03-0.07-0.05c0,0-0.01,0-0.01-0.01
		c-0.02-0.02-0.04-0.03-0.07-0.05c0,0,0,0,0,0c-0.02-0.02-0.05-0.03-0.07-0.05l-0.01-0.01c-0.05-0.04-0.1-0.07-0.14-0.11l0,0
		c-0.02-0.02-0.05-0.04-0.07-0.06l0,0c-0.05-0.04-0.1-0.07-0.15-0.11l0,0C842.58,220.13,841.18,219.12,839.77,218.13L839.77,218.13z
		 M819.12,205.94l-1.33,2.69c3.51,1.73,6.99,3.62,10.35,5.61l1.53-2.58c-0.2-0.12-0.4-0.24-0.61-0.36c0,0,0,0-0.01,0
		c-0.05-0.03-0.1-0.06-0.14-0.08c-0.01,0-0.01-0.01-0.01-0.01c-0.03-0.01-0.05-0.03-0.08-0.05c-0.01,0-0.01-0.01-0.02-0.01
		c-0.01-0.01-0.03-0.02-0.04-0.02c-0.01,0-0.02-0.01-0.02-0.01c-0.02-0.01-0.04-0.02-0.06-0.04c-0.01-0.01-0.02-0.01-0.03-0.02
		c-0.01-0.01-0.02-0.01-0.04-0.02c-0.01-0.01-0.03-0.02-0.04-0.02c-0.01-0.01-0.03-0.02-0.05-0.03c-0.01-0.01-0.02-0.01-0.04-0.02
		c-0.01-0.01-0.02-0.01-0.03-0.02c-0.02-0.01-0.04-0.02-0.06-0.03c-0.01-0.01-0.02-0.01-0.03-0.02c-0.01-0.01-0.03-0.02-0.04-0.02
		c-0.01,0-0.02-0.01-0.03-0.02c-0.02-0.01-0.04-0.02-0.06-0.03c-0.01,0-0.02-0.01-0.03-0.02c-0.02-0.01-0.04-0.02-0.05-0.03
		c-0.01,0-0.02-0.01-0.03-0.02c-0.02-0.01-0.03-0.02-0.05-0.03c-0.01,0-0.02-0.01-0.02-0.01c-0.02-0.01-0.04-0.03-0.07-0.04
		c-0.01,0-0.01-0.01-0.02-0.01c-0.02-0.01-0.04-0.02-0.05-0.03c-0.01,0-0.01-0.01-0.02-0.01c-0.02-0.01-0.04-0.03-0.07-0.04
		c0,0-0.01-0.01-0.02-0.01c-0.02-0.01-0.04-0.02-0.06-0.04c0,0-0.01,0-0.01-0.01c-0.02-0.01-0.05-0.03-0.07-0.04
		c-0.01,0-0.01,0-0.01-0.01c-0.02-0.01-0.05-0.03-0.07-0.04c0,0,0,0-0.01,0c-0.02-0.01-0.05-0.03-0.07-0.04c0,0-0.01,0-0.01-0.01
		c-0.02-0.01-0.05-0.03-0.07-0.04l-0.01-0.01c-0.02-0.01-0.05-0.03-0.07-0.04l0,0c-0.03-0.01-0.05-0.03-0.08-0.04c0,0,0,0-0.01,0
		c-0.05-0.03-0.1-0.06-0.15-0.09c0,0,0,0-0.01,0c-1.11-0.63-2.23-1.25-3.36-1.85l0,0c-0.05-0.03-0.11-0.06-0.16-0.09l0,0
		c-0.05-0.03-0.11-0.06-0.16-0.09c0,0,0,0-0.01,0c-0.03-0.01-0.05-0.03-0.08-0.04l0,0c-0.03-0.01-0.05-0.03-0.08-0.04l0,0
		c-0.03-0.01-0.05-0.03-0.08-0.04c0,0-0.01-0.01-0.01-0.01c-0.05-0.03-0.1-0.05-0.15-0.08c0,0-0.01-0.01-0.02-0.01
		c-0.02-0.01-0.05-0.03-0.07-0.04c0,0-0.01,0-0.01-0.01c-0.02-0.01-0.04-0.02-0.06-0.03c0,0-0.01-0.01-0.02-0.01
		c-0.02-0.01-0.05-0.02-0.07-0.04c0,0-0.02-0.01-0.02-0.01c-0.02-0.01-0.04-0.02-0.06-0.03c-0.01,0-0.01-0.01-0.02-0.01
		c-0.02-0.01-0.04-0.02-0.07-0.03c-0.01,0-0.02-0.01-0.03-0.01c-0.02-0.01-0.03-0.02-0.05-0.03c-0.01-0.01-0.03-0.01-0.04-0.02
		c-0.01-0.01-0.03-0.02-0.04-0.02c-0.01-0.01-0.02-0.01-0.03-0.02c-0.02-0.01-0.04-0.02-0.05-0.03c-0.01-0.01-0.03-0.01-0.04-0.02
		c-0.01-0.01-0.02-0.01-0.03-0.02c-0.01-0.01-0.02-0.01-0.04-0.02c-0.02-0.01-0.04-0.02-0.05-0.03c-0.01-0.01-0.03-0.01-0.04-0.02
		c-0.01,0-0.02-0.01-0.03-0.01c-0.03-0.01-0.05-0.03-0.07-0.04c-0.01,0-0.01-0.01-0.02-0.01c-0.02-0.01-0.03-0.02-0.05-0.02
		c0,0-0.01,0-0.01,0c-0.04-0.02-0.06-0.03-0.09-0.05c0,0-0.01,0-0.01,0c-0.05-0.03-0.1-0.05-0.15-0.08c0,0,0,0,0,0
		C820.83,206.79,819.98,206.36,819.12,205.94L819.12,205.94z M796.9,196.93l-0.92,2.86c3.73,1.2,7.45,2.55,11.07,4.02l1.13-2.78
		c-1.03-0.42-2.05-0.82-3.09-1.21c0,0,0,0-0.01,0c-0.06-0.02-0.1-0.04-0.16-0.06c0,0-0.01,0-0.01-0.01
		c-0.03-0.01-0.07-0.03-0.1-0.04c0,0-0.01,0-0.01,0c-0.01-0.01-0.03-0.01-0.05-0.02c-0.01,0-0.02-0.01-0.02-0.01
		c-0.03-0.01-0.05-0.02-0.08-0.03c-0.01,0-0.02-0.01-0.02-0.01c-0.02-0.01-0.03-0.01-0.04-0.02c-0.01,0-0.02-0.01-0.03-0.01
		c-0.02-0.01-0.04-0.02-0.06-0.02c-0.01,0-0.02-0.01-0.04-0.01c-0.01-0.01-0.02-0.01-0.04-0.01c-0.02-0.01-0.04-0.02-0.06-0.02
		c-0.01,0-0.02-0.01-0.03-0.01c-0.02-0.01-0.03-0.01-0.05-0.02c-0.01-0.01-0.02-0.01-0.03-0.01c-0.02-0.01-0.04-0.02-0.06-0.02
		c-0.01-0.01-0.02-0.01-0.03-0.01c-0.02-0.01-0.03-0.01-0.05-0.02c-0.01,0-0.02-0.01-0.03-0.01c-0.02-0.01-0.05-0.02-0.07-0.03
		c-0.01,0-0.02-0.01-0.03-0.01c-0.02-0.01-0.04-0.01-0.06-0.02c0,0-0.01,0-0.02-0.01c-0.02-0.01-0.05-0.02-0.07-0.03
		c-0.01,0-0.01,0-0.02-0.01c-0.02-0.01-0.05-0.02-0.07-0.03c0,0,0,0-0.01,0c-0.02-0.01-0.05-0.02-0.07-0.03c0,0-0.01,0-0.02-0.01
		c-0.03-0.01-0.05-0.02-0.08-0.03c0,0,0,0-0.01,0c-0.02-0.01-0.05-0.02-0.07-0.03c0,0-0.01,0-0.01,0c-0.03-0.01-0.05-0.02-0.08-0.03
		l-0.01,0c-0.03-0.01-0.05-0.02-0.08-0.03l-0.01,0c-0.03-0.01-0.06-0.02-0.08-0.03c0,0,0,0-0.01,0c-0.06-0.02-0.11-0.04-0.17-0.06
		l0,0c-0.06-0.02-0.12-0.04-0.17-0.06l0,0C800.89,198.26,798.9,197.57,796.9,196.93L796.9,196.93z M773.6,191.27l-0.49,2.96
		c3.86,0.64,7.75,1.44,11.54,2.36l0.71-2.92c-0.94-0.23-1.89-0.45-2.84-0.66c0,0,0,0,0,0c-0.06-0.01-0.12-0.03-0.18-0.04
		c0,0,0,0,0,0c-0.06-0.01-0.11-0.02-0.17-0.04c0,0-0.01,0-0.01,0c-0.02,0-0.03-0.01-0.05-0.01c0,0,0,0-0.01,0
		c-0.02,0-0.04-0.01-0.06-0.01c0,0,0,0-0.01,0c-0.02,0-0.03-0.01-0.05-0.01c-0.01,0-0.01,0-0.02,0c-0.01,0-0.03-0.01-0.04-0.01
		c-0.01,0-0.01,0-0.02,0c-0.02,0-0.03-0.01-0.05-0.01c0,0-0.01,0-0.01,0c-0.01,0-0.03-0.01-0.04-0.01c-0.01,0-0.01,0-0.02,0
		c-0.01,0-0.02-0.01-0.03-0.01c-0.01,0-0.01,0-0.02,0c-0.02,0-0.03-0.01-0.04-0.01c-0.01,0-0.02,0-0.02-0.01
		c-0.01,0-0.03-0.01-0.04-0.01c-0.01,0-0.02,0-0.02,0c-0.01,0-0.02,0-0.03-0.01c-0.01,0-0.01,0-0.02,0c-0.01,0-0.03-0.01-0.04-0.01
		c-0.01,0-0.02,0-0.03-0.01c-0.01,0-0.03-0.01-0.04-0.01c-0.01,0-0.02,0-0.03-0.01c-0.01,0-0.02,0-0.03-0.01
		c-0.01,0-0.02,0-0.03-0.01c-0.01,0-0.02,0-0.03-0.01c-0.01,0-0.02,0-0.03-0.01c-0.02,0-0.03-0.01-0.05-0.01
		c-0.01,0-0.02,0-0.03-0.01c-0.01,0-0.02,0-0.03-0.01c-0.01,0-0.02,0-0.03-0.01c-0.01,0-0.02,0-0.03-0.01c-0.01,0-0.02,0-0.03-0.01
		c-0.02,0-0.03-0.01-0.05-0.01c-0.01,0-0.02,0-0.03-0.01c-0.01,0-0.02,0-0.03-0.01c-0.01,0-0.02,0-0.03-0.01
		c-0.01,0-0.01,0-0.02-0.01c-0.04-0.01-0.07-0.02-0.11-0.02c-0.01,0-0.02,0-0.02,0c-0.01,0-0.02,0-0.03-0.01c-0.01,0-0.01,0-0.02,0
		c-0.01,0-0.02,0-0.03-0.01l-0.01,0c-0.02,0-0.04-0.01-0.07-0.01c-0.01,0-0.01,0-0.02,0c-0.01,0-0.02,0-0.03-0.01
		c-0.01,0-0.01,0-0.02,0c-0.01,0-0.02,0-0.03-0.01c-0.01,0-0.01,0-0.02,0c-0.02,0-0.05-0.01-0.07-0.01l-0.01,0
		c-0.01,0-0.02-0.01-0.04-0.01c-0.01,0-0.01,0-0.02,0c-0.01,0-0.02,0-0.03-0.01c-0.01,0-0.01,0-0.02,0c-0.02,0-0.05-0.01-0.07-0.01
		c-0.01,0-0.01,0-0.01,0c-0.01,0-0.02,0-0.03-0.01c-0.01,0-0.01,0-0.02,0c-0.01,0-0.02,0-0.03-0.01c-0.01,0-0.01,0-0.02,0
		c-0.04-0.01-0.08-0.02-0.11-0.02c-0.01,0-0.01,0-0.02,0c-0.01,0-0.02,0-0.04-0.01c-0.01,0-0.01,0-0.01,0
		c-0.04-0.01-0.08-0.02-0.12-0.02c-0.01,0-0.01,0-0.02,0c-0.01,0-0.02,0-0.04-0.01c-0.01,0-0.01,0-0.02,0c-0.01,0-0.02,0-0.03-0.01
		l0,0c-0.03-0.01-0.05-0.01-0.08-0.02c-0.01,0-0.01,0-0.02,0c-0.01,0-0.02,0-0.03-0.01c-0.01,0-0.01,0-0.02,0
		c-0.01,0-0.02,0-0.03-0.01c-0.01,0-0.01,0-0.02,0c-0.02,0-0.04-0.01-0.06-0.01c-0.01,0-0.01,0-0.02,0c-0.01,0-0.02,0-0.03-0.01
		c-0.01,0-0.01,0-0.02,0c-0.01,0-0.02,0-0.03-0.01c-0.01,0-0.01,0-0.02,0c-0.02,0-0.04-0.01-0.06-0.01c-0.01,0-0.02,0-0.02,0
		c-0.01,0-0.02,0-0.03-0.01c-0.01,0-0.01,0-0.02,0c-0.01,0-0.02,0-0.03-0.01c-0.01,0-0.01,0-0.02,0c-0.02,0-0.04-0.01-0.06-0.01
		c-0.01,0-0.01,0-0.02,0c-0.01,0-0.02,0-0.03-0.01c-0.01,0-0.01,0-0.02,0c-0.01,0-0.02,0-0.04-0.01c-0.01,0-0.01,0-0.01,0
		c-0.03-0.01-0.05-0.01-0.08-0.02l0,0c-0.01,0-0.02,0-0.04-0.01c-0.01,0-0.01,0-0.02,0c-0.01,0-0.02,0-0.04-0.01
		c-0.01,0-0.01,0-0.01,0c-0.04-0.01-0.08-0.02-0.12-0.02c-0.01,0-0.01,0-0.02,0c-0.01,0-0.02,0-0.03-0.01c-0.01,0-0.01,0-0.02,0
		c-0.04-0.01-0.08-0.02-0.12-0.02c-0.01,0-0.01,0-0.01,0c-0.01,0-0.02,0-0.04-0.01c-0.01,0-0.01,0-0.02,0c-0.01,0-0.02,0-0.03-0.01
		c-0.01,0-0.01,0-0.02,0c-0.02,0-0.04-0.01-0.06-0.01c-0.01,0-0.02,0-0.02,0c-0.01,0-0.02,0-0.03-0.01c-0.01,0-0.01,0-0.02,0
		c-0.01,0-0.02,0-0.03-0.01c-0.01,0-0.01,0-0.02,0c-0.02,0-0.04-0.01-0.06-0.01c-0.01,0-0.02,0-0.02,0c-0.01,0-0.02,0-0.03-0.01
		c-0.01,0-0.01,0-0.02,0c-0.01,0-0.02,0-0.03-0.01c-0.01,0-0.02,0-0.02,0c-0.02,0-0.04-0.01-0.06-0.01c-0.01,0-0.02,0-0.02,0
		c-0.01,0-0.02,0-0.03-0.01c-0.01,0-0.01,0-0.02,0c-0.01,0-0.02,0-0.03-0.01c-0.01,0-0.02,0-0.03-0.01s-0.02,0-0.03-0.01
		c-0.01,0-0.03-0.01-0.04-0.01c-0.01,0-0.02,0-0.03-0.01c-0.01,0-0.02,0-0.03-0.01c-0.01,0-0.02,0-0.03-0.01
		c-0.01,0-0.02,0-0.03-0.01c-0.01,0-0.02,0-0.02,0c-0.02,0-0.03-0.01-0.05-0.01c-0.01,0-0.02,0-0.03-0.01c-0.01,0-0.02,0-0.03-0.01
		c-0.01,0-0.02,0-0.03-0.01c-0.01,0-0.02,0-0.03-0.01c-0.01,0-0.01,0-0.02,0c-0.02,0-0.03-0.01-0.05-0.01c-0.01,0-0.01,0-0.02,0
		c-0.01,0-0.03-0.01-0.04-0.01c-0.01,0-0.01,0-0.02,0c-0.01,0-0.03-0.01-0.04-0.01c-0.01,0-0.01,0-0.02,0
		c-0.02,0-0.03-0.01-0.05-0.01c0,0-0.01,0-0.01,0c-0.02,0-0.03,0-0.05-0.01c-0.01,0-0.01,0-0.02,0c-0.01,0-0.03-0.01-0.04-0.01
		c-0.01,0-0.01,0-0.02,0c-0.02,0-0.03-0.01-0.05-0.01c-0.01,0-0.01,0-0.02,0c-0.02,0-0.03-0.01-0.04-0.01c-0.01,0-0.01,0-0.02,0
		c-0.01,0-0.03-0.01-0.04-0.01c-0.01,0-0.01,0-0.02,0c-0.04-0.01-0.07-0.01-0.11-0.02c-0.01,0-0.01,0-0.02,0
		c-0.01,0-0.03-0.01-0.04-0.01c0,0-0.01,0-0.01,0c-0.04-0.01-0.07-0.01-0.11-0.02c0,0,0,0-0.01,0c-0.02,0-0.03-0.01-0.05-0.01
		c0,0-0.01,0-0.01,0c-0.04-0.01-0.08-0.01-0.12-0.02c0,0,0,0,0,0c-0.02,0-0.03-0.01-0.05-0.01c0,0-0.01,0-0.01,0
		c-0.02,0-0.03-0.01-0.05-0.01c0,0,0,0-0.01,0c-0.02,0-0.04-0.01-0.06-0.01c0,0,0,0,0,0c-0.02,0-0.04-0.01-0.06-0.01c0,0,0,0-0.01,0
		c-0.02,0-0.04-0.01-0.06-0.01c0,0,0,0,0,0c-0.04-0.01-0.08-0.01-0.12-0.02c0,0,0,0-0.01,0c-0.02,0-0.03-0.01-0.05-0.01c0,0,0,0,0,0
		c-0.04-0.01-0.08-0.01-0.12-0.02c0,0,0,0,0,0c-0.06-0.01-0.12-0.02-0.18-0.03l0,0c-0.02,0-0.04-0.01-0.06-0.01c0,0,0,0,0,0
		C774.94,191.5,774.27,191.39,773.6,191.27L773.6,191.27z M749.72,189.04l-0.07,3c3.92,0.09,7.88,0.31,11.76,0.68l0.28-2.99
		C757.75,189.36,753.75,189.13,749.72,189.04L749.72,189.04z"/>
</g>
<g id="Layer_1">
	<g>
		<ellipse class="st1" cx="746" cy="340.5" rx="118" ry="112.43"/>
	</g>
</g>
</svg>
