<svg xmlns="http://www.w3.org/2000/svg" width="296.34" height="282.36" viewBox="0 0 296.34 282.36">
  <defs>
    <style>
      .cls-1 {
        fill: #3fa9f5;
      }
    </style>
  </defs>
  <g id="Layer_3" data-name="Layer 3">
    <path id="Layer_3" class="cls-1" d="M941.46,217.39h-4.15q-3.9.11-7.74.39h-.1l.08,1c3.93-.3,7.94-.46,11.91-.46v-1Zm-23.91,1.83-2.69.44h-.1l-.12,0h-.89l-.11,0h-.12l-.11,0h-.11c-1.16.21-2.3.44-3.45.67h0l-.17,0h-.11l-.17,0h-.06l-.16,0h-.12l-.1,0h-.66l-.06,0h-.15l-.12,0h-.11l-.17,0h-.05l-1.86.42.23,1c3.84-.91,7.78-1.67,11.7-2.28l-.16-1Zm-23.33,5.5c-2.55.82-5.06,1.69-7.53,2.63h-.06l0,0h0l-.12.05h-.39l-.05,0h-.16l0,0h0l-.16.06h0l0,0h0c-.89.34-1.78.7-2.66,1.06l.37.93c3.66-1.5,7.43-2.88,11.2-4.09l-.3-.95ZM872,233.82c-1.1.56-2.2,1.13-3.28,1.72h0l0,0h0l0,0h0l0,0h0l-.16.08h-.1l0,0h0l-.06,0h-.1l0,0h0l0,0h0l0,0h0l0,0h0l0,0h-.07l0,0h0l0,0h0l0,0h-.06l0,0h-.06l0,0h0l-.09,0h0l0,0h0l0,0h0l0,0h0l-.14.08h0l0,0h0l0,0h0l0,0h0l-.14.08h0l0,0h0l0,0h0l-.14.08h0l0,0h0l0,0h0l0,0h0l-.14.08h0l0,0h0l0,0h0l0,0h0L866,237h0l0,0h0l0,0h0l0,0h0l-.09,0h0l0,0h0l0,0h0l0,0h0l-.09.05h0l0,0h0l0,0h0l0,0h0l0,0h0l-.09.05h0l0,0h-.05v0h0l0,0h0l0,0h0l0,0h0l0,0h-.06l0,0h0l0,0h0l0,0h0l0,0h0l0,0h0l0,0h0l-.1.06h0l0,0h0l0,0h0l0,0h0l0,0h0l-.12.07h0l0,0h0l0,0h0l0,0h0l-2.48,1.49.52.85c3.37-2.06,6.87-4,10.41-5.8l-.46-.89Zm-20.45,12.51c-2.88,2.09-5.67,4.29-8.38,6.57h0l0,0h0l0,0h0l0,0h0l0,0h0l0,0h0l0,0,0,0h0l0,0h0l0,0h0l0,0h0l-.63.54.65.76c3-2.57,6.14-5.06,9.34-7.4l-.59-.8ZM833.41,262c-1.82,1.85-3.59,3.74-5.31,5.69h0l0,0h0l0,0h0l-.11.13h0l0,0h0l0,0h0l0,0h0l0,0v0l0,0v0l0,0h0l0,0h0v0l0,0,0,0,0,0v0l0,0v0l0,0h0l0,0h0l0,0h0l0,0h0l0,0h0l0,0h0l-.14.16h0l0,0h0l0,0h0l-1.77,2.08.77.64c2.53-3,5.22-6,8-8.82l-.71-.7Zm-15.34,18.42c-2.21,3.15-4.28,6.4-6.22,9.72h0l0,.05h0l0,0h0l-.08.14h0l0,0h0l0,0v.05h0l.87.5c2-3.41,4.13-6.79,6.4-10l-.82-.57Zm-12,20.75c-.2.41-.39.83-.58,1.25h0l0,.05h0l-.09.19h0v0h0l0,0h0l0,0h0l0,.05h0l0,.05h0l0,.05h0l0,0v0l0,0v.05h0v.05l0,.05h0l0,0v.23l0,.06h0v0h0v0h0l0,0h0v0h0l0,0h0l0,.12h0l0,0h0l0,0h0l0,0h0l0,0h0l-.09.2h0l0,0h0c0,.09-.08.17-.11.26h0q-1.65,3.78-3.07,7.66l.94.35c1.36-3.71,2.89-7.41,4.57-11l-.9-.42Zm-8.21,22.51h0v.19l0,.11h0v0h0v.08h0l0,.17h0v0h0v0h0l0,0h0c-.93,3.6-1.73,7.25-2.37,10.95l1,.17c.67-3.89,1.53-7.81,2.55-11.63l-1-.26Zm-4.1,23.62q-.3,3.56-.41,7.15h0v.17h0v0h0v.17h0v.05h0V355h0V355h0v.11h0v0h0v0h0v.12h0v.05h0v.16h0v.05h0v.11h0v0h0v0h0V356h0v0h0v.11h0v.1h0v.11h0v0h0v0h0v.05h0v.1h0v.05h0v.11h0v.05h0V357h0v0h0v0h0v.16h0v.05h0v.06h0v.05h0v.11h0v.16h0v.06h0v0h0V358h0V358h0v.05h0v.11h0v.05h0v.1h0v0h0v.17h0v.05h0v.15h0v0h0v.29h0v.07h0v.05h1v-.67c0-3.74.16-7.52.46-11.23l-1-.08Zm1.11,23.88-1,.09c.37,4,.92,8,1.64,11.88l1-.18c-.71-3.88-1.26-7.85-1.63-11.79Zm4.31,23.4-1,.26q1.6,5.81,3.72,11.41l.93-.35c-1.39-3.71-2.63-7.52-3.69-11.32Zm8.37,22.27-.9.43q2.6,5.42,5.66,10.58l.86-.51c-2-3.41-3.91-6.95-5.62-10.5Zm12.12,20.48-.81.58c.31.44.63.89,1,1.33h0l0,0h0l0,0h0l0,0h0l.11.14h0l0,0h0l0,0v0l0,0h0l0,0h0l0,0h0l.07.1h0l0,0v0l0,0v0l0,0v0l0,0v0l.06.08,0,0v0l0,0v0l0,0v0l0,0v0l0,0,0,0v0h0l0,0,0,0,0,0v0l0,0h0l0,0h0l0,0h0l0,0h0l0,0h0l0,0h0l0,0h0l0,0h0l0,0h0l0,0h0l0,0h0l0,0h0l0,0h0l0,0h0l0,0h0l0,0h0l0,0v0l.06.08h0l0,0h0l0,0h0l0,0h0l0,0h0l0,0h0l.06.09h0l0,0h0l0,0h0l0,0h0l0,0h0l0,0h0l0,.05h0l0,0h0l0,0h0l0,0h0l0,0h0l0,0h0l.06.08h0l0,0h0l0,0h0l0,0h0l0,0h0l0,0h0l0,0h0l0,0v0l0,0v0l0,0v0l0,0v0l0,0h0l.06.08h0l0,0h0l0,0h0l0,0,0,0v0l0,0,0,0v0l0,0h0l0,0v0l0,0,0,0v0l0,0v0l0,0v0l0,0v0l0,0v0l0,0v0l0,0v0l0,0v0l0,0v0l0,0v0l0,0h0l0,.06h0l0,0h0l0,0h0l0,0h0l0,0h0l0,0h0l.08.11h0l0,0h0l0,0h0l0,0h0l0,0h0l.11.14h0l0,0h0l0,0h0l0,0h0c.87,1.09,1.75,2.16,2.65,3.22l.76-.65c-2.56-3-5-6.18-7.32-9.39Zm15.41,18.14-.71.71q4.25,4.23,8.84,8.11l.65-.76c-3-2.56-6-5.27-8.78-8.06Zm18.19,15.37-.58.81c1.11.8,2.22,1.57,3.36,2.34h0l.18.12h0l0,0h0l0,0h0l0,0h0l.13.09h0l0,0h0l0,0h0l0,0h0l0,0h0l0,0h0l0,0h0l0,0h0l0,0h0l0,0h0l0,0h0l0,0h0l0,0h0l0,0h0l0,0h0l.06,0h.05l0,0h0l0,0h0l0,0h.05l.06,0h.05l0,0h0l0,0h0l0,0h0l.15.1h0l0,0h0l0,0h0l.19.12h0l0,0h0l1.06.68h0l.24.15h0l0,0h0l0,0h0l0,0h0l.14.09h0l0,0h.06l0,0h0l.09.06h0v0h.05l0,0h0l0,0h0l0,0h.06l0,0h0l0,0h0l0,0h0l.09.05h0l.05,0h0l0,0h0l0,0h0c.68.43,1.37.84,2.06,1.26l.52-.86c-3.4-2-6.76-4.23-10-6.53Zm20.43,12.24-.45.89,1.34.66h0l0,0h0l0,0h0l0,0h0l.07,0h0l0,0H875l0,0h0l0,0h0l0,0h.11l0,0h0l.05,0h0l0,0h0l0,0h.06l0,0h0l.1.05h0l.05,0h0l0,0h0l.25.11h0q2.12,1,4.27,1.92h0l.05,0h0l.15.07h0l0,0h0l0,0h0l.2.09h0c1.13.48,2.27,1,3.42,1.41l.37-.92c-3.68-1.47-7.34-3.11-10.88-4.86Zm22.11,8.84-.29.95,1.42.44h0l.23.06h0l0,0h.1l.11,0h.15l0,0h.23l0,0H898l0,0h0l.17,0h0l0,0h0q4.37,1.26,8.83,2.28l.22-1c-3.86-.87-7.73-1.91-11.51-3.08ZM919,497.14l-.14,1c1.34.2,2.68.38,4,.54h1l.18,0h0q3.3.36,6.65.59l.07-1c-4-.26-7.95-.69-11.86-1.26Zm35.69,1.06c-3.94.33-7.94.52-11.91.55v1q6,0,12-.56l-.08-1Zm23.5-3.85c-3.84.94-7.77,1.74-11.68,2.38l.16,1,1.15-.19h0l.17,0h.12l.11,0h.41l.08,0h.11l.22,0h0c1.35-.24,2.68-.5,4-.77h0l.17,0h.11l.12,0h.64l.11,0h.12l.11,0h.11c1.3-.28,2.6-.58,3.88-.9l-.24-1Zm22.62-7.47c-3.65,1.53-7.4,2.94-11.16,4.18l.31.95q5.73-1.89,11.24-4.21l-.39-.92ZM1022,475.93c-3.36,2.09-6.84,4.07-10.36,5.9l.46.88c.63-.32,1.25-.65,1.87-1h0l.2-.11h0l0,0h0l0,0h.06l0,0h.09l0,0h0l0,0h0l.14-.08h0l0,0h0l0,0h0q3.93-2.14,7.7-4.49l-.53-.85Zm19.12-14.2c-3,2.61-6.09,5.13-9.28,7.49l.6.8h0l0,0h0l0,0h0l.08-.06h0l0,0h0l0,0h0l0,0h0l0,0h0l.13-.1h0l0,0h0c1.07-.8,2.14-1.62,3.19-2.46h0l0,0h0l.16-.13h0l0,0h0l0,0h0l0,0h0l.08-.07h0l0,0h0l0,0v0h0v0l0,0h0l0,0h0l0,0,0,0h0l0,0,0,0h0l0,0,0,0h0l0,0h0l.09-.07h0l0,0h0l0,0h0l0,0h0l0,0h0l.15-.11h0l0,0h0q2.19-1.77,4.29-3.62l-.65-.76Zm16.54-17.11c-2.5,3.05-5.16,6.05-7.92,8.9l.72.69c2.78-2.88,5.45-5.87,8-9l-.78-.63ZM1071.11,425c-1.94,3.43-4.07,6.83-6.31,10.1l.83.57c1-1.54,2.08-3.1,3.07-4.68h0l.14-.22h0l0-.05h0l0,0h0l0,0h0l.09-.14h0l0,0h0l0,0v0l0,0h0v0h0l0,0h0l0,0h0l0,0v0l0,0v0l0,0V430h0l0,0v0l0,0v0l0,0v0l0,0v0l0,0v0l0,0v0h0l0-.06h0v0h0v-.05l0,0v-.06l0,0v0l.06-.09h0l0,0h0l0,0v-.06l0,0h0v0h0l.06-.11h0l0,0h0l0,0h0l0,0h0v0h0l0,0h0l0-.06h0v-.05l0,0v0l0,0v0l0,0h0l0,0v0l0,0,0,0v-.05l0,0v-.07h0v-.05l0,0v0l0-.09h0l0,0v0l0,0h0l0,0v0l0,0h0l0,0h0l0-.09h0l0,0h0l0,0h0l0,0h0l.11-.18h0l0-.05h0c.36-.61.72-1.23,1.07-1.85l-.87-.49Zm9.87-21.65c-1.32,3.72-2.82,7.43-4.46,11l.91.41q2.35-5.16,4.28-10.54h0v-.08h0V404l0-.05v-.23h0l0-.09-.94-.33Zm5.9-23.05c-.64,3.9-1.46,7.82-2.44,11.65l1,.25c.09-.33.17-.66.25-1h0l.06-.23h0v0h0v0h0v-.05h0l0-.13h0v0h0v0h0v0l0-.12h0v0h0v0h0v-.72l0,0h0v-.05h0v0h0v0h0v0h0v0h0l0-.1h0v0h0V389h0l0,0h0v-.05h0v-.15h0l0-.1h0v0h0v0h0v-.1h0l0-.1h0v0h0v-.1h0v-.05h0V388h0V388h0v-.1h0v0h0l0-.1h0v-.05h0v-.05h0v0h0v-.05h0l0-.11h0v-.05h0v0h0v0h0l0-.16h0v0h0v0h0v-.05h0l0-.11h0v-.05h0v0h0v0h0l0-.16h0v-.05h0v-.05h0v-.05h0l0-.15h0v-.05h0v0h0V386h0l0-.16h0v-.05h0v0h0a1.55,1.55,0,0,1,0-.21h0v0h0v-.05h0c0-.08,0-.15,0-.22h0v-.05h0c.3-1.55.58-3.09.84-4.65l-1-.16Zm2.74-23.75-1,0c0,.67,0,1.35,0,2,0,3.29-.12,6.61-.36,9.87l1,.08q.11-1.47.18-2.94h0v-.11h0v-.11h0v-.11h0v0h0v-.11h0V365h0v-.11h0v0h0v-1.26h0v-.17h0v0h0v-.05h0v-.1h0v-.1h0V363h0v0h0v-.11h0v0h0v0h0v-.05h0v-.11h0v-.05h0v-.05h0v-.11h0v-.05h0v0h0v-.05h0v-.11h0V362h0v-.05h0v-.12h0v-.05h0v-.05h0v0h0v0h0v0h0v0h0v-.05h0v-.05h0v-.05h0v-.05h0v-.1h0v-.05h0V361h0v0h0v-.05h0v-.05h0v-.05h0v-.05h0v-.05h0v-.16h0v-.05h0v-.11h0v0h0v0h0v-.05h0v-.05h0v-.05h0V360h0V360h0v-.06h0v-.1h0v0h0v-.06h0v-.05h0v-.05h0v-.1h0v-.05h0v-.05h0v-.05h0v-.11h0v0h0v0h0v0h0v-.05h0v0h0v-.05h0v-.11h0v0h0v-.05h0v-.4h0c0-.55,0-1.09,0-1.64Zm-2.47-23.84-1,.19c.75,3.88,1.34,7.84,1.75,11.78l1-.1c-.17-1.69-.38-3.37-.62-5.05h0v0h0v-.05h0a1.1,1.1,0,0,1,0-.18h0v0h0v-.08h0v-.32h0v-.64h0v-.2h0l0-.11h0v-.15h0v-.1h0v-.05h0v0h0v0h0v-.05h0l0-.1h0v0h0v-.05h0v0h0l0-.16h0v0h0v-.05h0l0-.17h0v-.05h0v0h0l0-.21h0v-.05h0c0-.09,0-.18,0-.27h0v-.06h0l-.09-.49h0v-.05h0l0-.21h0v-.05h0V335h0l0-.22h0v0h0v0h0l0-.16h0v0h0v0h0v0h0l0-.11h0v0h0v-.1h0v0h0v0h0v-.49h0l0-.08h0v0h0v0h0v0h0l0-.17h0V333h0v0h0c0-.09,0-.18,0-.27Zm-6.65-23-.93.36c1.43,3.7,2.71,7.49,3.81,11.29l1-.28c-.27-.93-.55-1.85-.84-2.77h0l-.06-.21h0l0-.05h0v0h0v-.05h0l-.05-.15h0l0,0h0v-.09h0v-.05h0v0h0l0-.05v-.27h0v-.25h0l0-.12h0v-.08h0l0,0h0l-.07-.21h0v0h0l0,0h0c-.74-2.25-1.53-4.46-2.38-6.66Zm-10.58-21.5-.86.51c2,3.4,4,6.91,5.72,10.45l.9-.44c-1.06-2.15-2.18-4.28-3.35-6.36h0l0,0h0l0,0h0l-.1-.19h0l0,0h0l0,0h0l0,0h0l0,0h0l0-.09h0l0,0h0l0,0h0l0,0v-.05h0l0,0h0l0,0h0l0,0h0v0h0l0,0v-.07l0,0v-.05l0,0,0,0v-.06l0,0V291l0,0v-.06l0,0v0l0,0,0,0v-.07l0,0v-.07l0,0v0l0-.09v0l0,0v-.05h0l0,0v-.06l-.09-.14h0l0,0h0v-.05l0,0h0l0,0h0l-.09-.16h0l0,0h0l0,0h0l0,0h0l-.12-.19h0l0,0h0l0,0h0l-.12-.2h0l0,0h0l0,0h0l0,0h0l-.14-.24h0l-.43-.72Zm-14.12-19.38-.75.65c2.59,3,5.09,6.14,7.41,9.33l.81-.59c-.7-1-1.42-1.92-2.15-2.87h0l-.19-.26h0l0,0h0l0,0h0l-.1-.13h0l0,0h0l0,0h0l0,0h0l0,0h0l0,0h0l-.07-.08h0l0,0h0l0,0h0l0,0h0l0,0h0v0l0,0,0,0v0l0,0,0,0v0l0,0v0l0,0h0l0,0h0l-.08-.1h0l0,0h0l0,0h0l0,0h0l0,0h0l-.14-.18h0l0,0h0c-1.3-1.64-2.63-3.26-4-4.84ZM1038.66,252l-.63.77c3,2.53,6,5.21,8.85,8l.7-.72-.21-.2h0l0,0h0l0,0h0l0,0h0l-.07-.07h0l0,0h0l0,0v0h0l0,0,0,0,0,0h0l-.09-.08h0l0,0h0l0,0h0l0,0h0l-2.42-2.27h0l0,0h0l0,0h0l-.17-.15h0l0,0h0l0,0h0l0,0h0l-.1-.08h0l0,0h0l0,0h0l0,0v0l0,0h0l0,0,0,0,0,0,0,0h0l0,0,0,0,0,0h0l0,0v0l0,0h0l-.08-.07h0l0,0h0l0,0h0l0,0h0l0,0h0q-2.26-2-4.63-4ZM1019,238.26l-.51.86c3.42,2,6.79,4.17,10,6.44l.58-.82-.61-.42h0l0,0h0l0,0h0l0,0h0l0,0h0l0,0,0,0h0l0,0,0,0h0l0,0h0l0,0h0l-.14-.09h0l0,0h0q-2.75-1.87-5.56-3.63h0l0,0h0l0,0h0l0,0h0l0,0h0l0,0h0l0,0h0l0,0h0l0,0h-.06l0,0h0l0,0h0l0,0h-.06l0,0h0c-.88-.54-1.77-1.08-2.66-1.6Zm-21.58-10.44-.37.93c3.7,1.44,7.37,3,10.93,4.76l.44-.9-.23-.11h0l0,0h0l-.15-.08h0l0,0h0l0,0h0l0,0h0l-.1-.05h0l0,0h0l0,0h-.06l-.09-.05h0l0,0h0l0,0h-.11l0,0h0l0,0h0l0,0h-.06l0,0h0l0,0h0l0,0h0l0,0h-.11l0,0h-.1l0,0h-.1l-.07,0h-.1l0,0h0l0,0h0l-.1,0h-.11l0,0h0l-.11-.05h-.14l-.16-.07h0l0,0h-.05l-.17-.08h0l0,0h0l0,0h0l0,0h0l-.13-.06H1005l-.16-.07h0l0,0h0l0,0h0l-.17-.08h0l0,0h0s0,0,0,0l-.21-.09h0l0,0h0l-.51-.23h0l-.51-.22h0q-2.83-1.24-5.73-2.37Zm-23-6.91-.21,1c3.87.84,7.75,1.84,11.54,3l.28-1c-1.82-.54-3.65-1.06-5.5-1.54h0l-.22-.06h0l-.06,0h0l-.11,0h0l0,0H980l-.16,0h-.11l-.17,0h-.11l-.11,0h-.11l-.17,0H979l-.16,0h-.06l0,0h0l-.11,0h-.11l-.11,0h-.11l-.22-.05H978l-.16,0h0l-.05,0h0l-.28-.06h0l-.22-.06h0l-2.78-.63Zm-23.76-3.24-.05,1c4,.24,8,.63,11.86,1.16l.13-1-1.81-.24h-.07l-.16,0h-.07l-.11,0h-4.54l-.17,0h0l-.23,0h0c-1.58-.14-3.17-.26-4.77-.35Z" transform="translate(-793.29 -217.39)"/>
  </g>
  <g id="Layer_4" data-name="Layer 4">
    <ellipse class="cls-1" cx="147.71" cy="140.79" rx="118" ry="112.43"/>
  </g>
</svg>
